<?xml version="1.0" standalone="no"?><!DOCTYPE svg PUBLIC "-//W3C//DTD SVG 1.1//EN" "http://www.w3.org/Graphics/SVG/1.1/DTD/svg11.dtd"><svg t="1559577975050" class="icon" style="" viewBox="0 0 1024 1024" version="1.1" xmlns="http://www.w3.org/2000/svg" p-id="1181" xmlns:xlink="http://www.w3.org/1999/xlink" width="16" height="16"><defs><style type="text/css"></style></defs><path d="M0 0h1024v1024H0z" fill="#261300" p-id="1182"></path><path d="M671.012571 365.714286a5.705143 5.705143 0 0 1 0.877715-3.949715 6.144 6.144 0 0 1 3.949714-1.024h67.291429a5.558857 5.558857 0 0 1 3.949714 1.024 7.021714 7.021714 0 0 1 0.877714 3.949715v344.356571a5.705143 5.705143 0 0 1-0.877714 3.949714 7.168 7.168 0 0 1-3.949714 1.024h-66.267429a5.558857 5.558857 0 0 1-4.388571-1.609142 4.096 4.096 0 0 1-1.462858-3.364572V365.714286m-4.973714-99.035429a43.885714 43.885714 0 0 1 12.726857-33.499428 45.202286 45.202286 0 0 1 31.158857-11.410286 43.885714 43.885714 0 0 1 31.744 11.995428 43.885714 43.885714 0 0 1 12.141715 32.914286 41.837714 41.837714 0 0 1-12.580572 32.621714 46.518857 46.518857 0 0 1-32.182857 11.410286 40.813714 40.813714 0 0 1-43.008-43.885714M473.965714 509.074286c-5.851429-24.576-14.628571-58.514286-25.892571-102.4s-19.456-77.970286-24.868572-103.570286c-4.388571 25.307429-11.702857 57.490286-21.357714 96.548571s-19.017143 75.483429-28.379428 109.568h100.498285m-118.930285 70.948572l-33.206858 131.657143a4.534857 4.534857 0 0 1-2.486857 3.364571 14.628571 14.628571 0 0 1-4.388571 0h-62.317714a5.412571 5.412571 0 0 1-3.949715-1.024 6.582857 6.582857 0 0 1 0-4.973714l120.978286-435.053714c0-3.949714 1.462857-8.192 2.340571-13.019429a125.805714 125.805714 0 0 0 1.462858-23.990857 3.949714 3.949714 0 0 1 1.024-2.925714 3.657143 3.657143 0 0 1 2.925714-1.024h88.795428a5.12 5.12 0 0 1 3.803429 1.024 3.657143 3.657143 0 0 1 1.024 2.925714l136.484571 473.088a8.192 8.192 0 0 1 0 3.364571c0 1.024-1.462857 1.609143-3.364571 1.609143h-70.217143a8.777143 8.777143 0 0 1-4.388571 0c-1.024 0-1.462857-1.024-1.462857-2.486857l-36.132572-131.657143h-136.923428M42.861714 43.885714h939.154286v936.228572H42.861714V43.885714M0 0v1024h1024V0H0" fill="#FF7C00" p-id="1183"></path></svg>