<?xml version="1.0" standalone="no"?><!DOCTYPE svg PUBLIC "-//W3C//DTD SVG 1.1//EN" "http://www.w3.org/Graphics/SVG/1.1/DTD/svg11.dtd"><svg t="1559578105922" class="icon" style="" viewBox="0 0 1024 1024" version="1.1" xmlns="http://www.w3.org/2000/svg" p-id="1990" xmlns:xlink="http://www.w3.org/1999/xlink" width="16" height="16"><defs><style type="text/css"></style></defs><path d="M0 0h1024v1024H0z" fill="#57C7FA" p-id="1991"></path><path d="M54.857143 54.857143h914.285714v914.285714H54.857143z" fill="#071D25" p-id="1992"></path><path d="M209.737143 705.097143V312.502857h128a454.765714 454.765714 0 0 1 94.171428 5.851429 102.582857 102.582857 0 0 1 56.502858 38.4 121.782857 121.782857 0 0 1 22.857142 76.434285A128 128 0 0 1 497.371429 493.714286a108.434286 108.434286 0 0 1-33.28 38.765714 114.102857 114.102857 0 0 1-41.142858 18.285714 444.16 444.16 0 0 1-82.285714 5.668572h-51.565714v148.114285z m79.36-326.217143v111.36h43.337143a209.737143 209.737143 0 0 0 62.72-6.034286A53.211429 53.211429 0 0 0 420.571429 464.822857a52.297143 52.297143 0 0 0 8.96-30.537143 50.651429 50.651429 0 0 0-12.617143-35.291428 54.857143 54.857143 0 0 0-32.914286-17.371429 373.028571 373.028571 0 0 0-57.051429-2.742857zM548.571429 623.908571l75.52-11.52a56.137143 56.137143 0 0 0 19.565714 33.462858 66.925714 66.925714 0 0 0 41.325714 11.337142 74.605714 74.605714 0 0 0 43.885714-10.788571 23.954286 23.954286 0 0 0 9.874286-20.114286 19.748571 19.748571 0 0 0-5.302857-14.08 58.697143 58.697143 0 0 0-25.234286-9.874285c-60.708571-13.531429-99.108571-25.6-115.382857-36.571429a73.142857 73.142857 0 0 1-33.828571-64 78.628571 78.628571 0 0 1 29.257143-62.171429 135.862857 135.862857 0 0 1 90.514285-25.234285 157.805714 157.805714 0 0 1 86.674286 18.285714A97.28 97.28 0 0 1 804.571429 489.508571l-70.948572 13.165715a43.154286 43.154286 0 0 0-17.188571-25.417143 62.537143 62.537143 0 0 0-36.571429-8.96 80.64 80.64 0 0 0-42.605714 8.411428 18.285714 18.285714 0 0 0-8.594286 15.177143 17.005714 17.005714 0 0 0 7.497143 13.714286 290.925714 290.925714 0 0 0 70.4 21.211429 205.531429 205.531429 0 0 1 83.931429 33.462857 69.485714 69.485714 0 0 1 23.588571 55.954285 85.942857 85.942857 0 0 1-32.731429 67.291429 144.822857 144.822857 0 0 1-96.548571 27.977143 159.268571 159.268571 0 0 1-91.428571-23.588572 108.617143 108.617143 0 0 1-44.8-64z" fill="#57C7FA" p-id="1993"></path></svg>