<?xml version="1.0" standalone="no"?><!DOCTYPE svg PUBLIC "-//W3C//DTD SVG 1.1//EN" "http://www.w3.org/Graphics/SVG/1.1/DTD/svg11.dtd"><svg t="1559577702836" class="icon" style="" viewBox="0 0 1024 1024" version="1.1" xmlns="http://www.w3.org/2000/svg" p-id="5597" xmlns:xlink="http://www.w3.org/1999/xlink" width="16" height="16"><defs><style type="text/css"></style></defs><path d="M0 0h1023.800039v1023.800039H0z" fill="#E47AFA" p-id="5598"></path><path d="M52.689709 52.689709h918.420621v918.420621H52.689709z" fill="#4C006C" p-id="5599"></path><path d="M248.451474 316.138254h162.76821c94.581527 0 142.372193 40.792033 142.372193 122.376099 0 82.183948-47.790666 123.475884-143.471979 123.475883h-97.280999V715.06034h-64.287444V316.138254z m62.587776 62.587776v132.974029h95.581332c29.194298 0 50.590119-5.498926 64.087483-15.496974 13.497364-10.49795 20.196055-27.694591 20.196055-51.489943s-7.298574-40.492091-20.795938-50.390158c-13.497364-10.49795-34.893185-15.496973-63.587581-15.496973h-95.481351z m433.115407 39.092365c13.897286 0 26.194884 2.19957 36.192931 7.298574v63.787542c-14.497169-4.499121-27.894552-6.198789-41.191954-6.198789-16.696739 0-31.79379 6.198789-45.091193 19.596172-15.596954 15.097051-22.795548 34.693224-22.795548 59.388401V715.06034h-62.987698V425.716852h62.987698V467.108768c7.798477-14.597149 16.696739-25.794962 27.294669-33.593439 12.7975-10.59793 27.794571-15.696934 45.591095-15.696934z" fill="#E47AFA" p-id="5600"></path></svg>