<?xml version="1.0" standalone="no"?><!DOCTYPE svg PUBLIC "-//W3C//DTD SVG 1.1//EN" "http://www.w3.org/Graphics/SVG/1.1/DTD/svg11.dtd"><svg t="1559577715763" class="icon" style="" viewBox="0 0 1024 1024" version="1.1" xmlns="http://www.w3.org/2000/svg" p-id="6425" xmlns:xlink="http://www.w3.org/1999/xlink" width="16" height="16"><defs><style type="text/css"></style></defs><path d="M0 0h1024v1024H0z" fill="#1F0040" p-id="6426"></path><path d="M724.553143 492.982857h32.182857v-7.899428a105.618286 105.618286 0 0 0-10.678857-42.569143 43.885714 43.885714 0 0 0-43.885714-24.576 49.152 49.152 0 0 0-44.763429 23.113143 114.834286 114.834286 0 0 0-17.554286 51.931428h85.723429m-87.771429 61.001143a112.493714 112.493714 0 0 0 22.966857 71.094857c14.628571 17.993143 38.034286 26.916571 70.656 26.916572a235.227429 235.227429 0 0 0 35.547429-2.486858 105.472 105.472 0 0 0 33.645714-10.532571c1.316571 0 2.486857-1.024 3.510857 0s1.462857 1.462857 1.462858 3.510857v55.003429A10.825143 10.825143 0 0 1 804.571429 702.171429a5.705143 5.705143 0 0 1-2.925715 2.925714 140.288 140.288 0 0 1-38.473143 13.019428 269.897143 269.897143 0 0 1-47.396571 4.096c-56.466286 0-96.548571-17.993143-119.954286-54.564571a228.498286 228.498286 0 0 1-35.108571-126.390857 227.766857 227.766857 0 0 1 37.595428-131.657143 120.685714 120.685714 0 0 1 105.764572-55.003429c46.811429 0 79.579429 15.945143 98.011428 47.981715a191.049143 191.049143 0 0 1 27.794286 96.987428c0 10.532571 0 20.041143-0.877714 28.086857a73.142857 73.142857 0 0 1-2.925714 17.993143 9.801143 9.801143 0 0 1-2.048 3.949715 13.458286 13.458286 0 0 1-3.803429 2.048c-3.949714 0-11.995429 1.170286-24.429714 1.901714s-27.794286 1.024-46.811429 1.024h-111.177143M409.6 509.074286c-6.290286-23.990857-15.36-58.514286-26.770286-102.4s-19.602286-78.409143-24.868571-104.009143h-1.024c-4.388571 25.307429-11.702857 57.490286-21.504 96.548571s-19.017143 75.776-28.233143 109.860572h102.4m-119.954286 70.948571l-34.084571 131.657143a3.803429 3.803429 0 0 1-1.462857 2.925714 10.678857 10.678857 0 0 1-4.388572 1.024h-63.488c-1.901714 0-2.925714 0-3.364571-1.024a15.506286 15.506286 0 0 1 0-4.973714l120.832-435.053714a81.334857 81.334857 0 0 0 2.925714-12.434286c0-4.242286 1.316571-12.141714 2.048-23.552a4.242286 4.242286 0 0 1 0.877714-3.072 3.657143 3.657143 0 0 1 2.048-0.877714h89.234286a3.949714 3.949714 0 0 1 2.925714 0.877714 19.748571 19.748571 0 0 1 1.901715 3.072L541.257143 710.070857a3.364571 3.364571 0 0 1 0 3.364572 2.925714 2.925714 0 0 1-2.925714 1.609142H468.114286a7.460571 7.460571 0 0 1-4.388572-1.024 6.290286 6.290286 0 0 1-2.486857-2.925714l-35.108571-131.657143H289.645714M42.861714 43.885714h939.154286v936.228572H42.861714V43.885714M0 0v1024h1024V0H0" fill="#D291FF" p-id="6427"></path></svg>