<?xml version="1.0" standalone="no"?><!DOCTYPE svg PUBLIC "-//W3C//DTD SVG 1.1//EN" "http://www.w3.org/Graphics/SVG/1.1/DTD/svg11.dtd"><svg t="1559458894933" class="icon" style="" viewBox="0 0 1024 1024" version="1.1" xmlns="http://www.w3.org/2000/svg" p-id="12870" xmlns:xlink="http://www.w3.org/1999/xlink" width="32" height="32"><defs><style type="text/css"></style></defs><path d="M692.148148 74.714074H348.539259a265.481481 265.481481 0 0 0-265.481481 265.481482v343.608888a265.481481 265.481481 0 0 0 265.481481 265.481482H692.148148a265.481481 265.481481 0 0 0 265.481482-265.481482V340.195556a265.481481 265.481481 0 0 0-265.481482-265.481482z m189.62963 609.28a189.62963 189.62963 0 0 1-189.62963 189.62963H348.539259a189.62963 189.62963 0 0 1-189.629629-189.62963V340.195556a189.62963 189.62963 0 0 1 189.629629-189.62963H692.148148a189.62963 189.62963 0 0 1 189.62963 189.62963z" p-id="12871"></path><path d="M363.70963 252.586667a37.925926 37.925926 0 0 0 0 75.851852 347.211852 347.211852 0 0 1 346.642963 346.832592 37.925926 37.925926 0 0 0 75.851851 0 423.063704 423.063704 0 0 0-422.494814-422.684444z" p-id="12872"></path><path d="M343.419259 431.217778a37.925926 37.925926 0 0 0 0 75.851852 187.922963 187.922963 0 0 1 187.733334 187.733333 37.925926 37.925926 0 0 0 75.851851 0 263.774815 263.774815 0 0 0-263.585185-263.585185z" p-id="12873"></path><path d="M330.145185 695.561481m-75.851852 0a75.851852 75.851852 0 1 0 151.703704 0 75.851852 75.851852 0 1 0-151.703704 0Z" p-id="12874"></path></svg>