<?xml version="1.0" standalone="no"?><!DOCTYPE svg PUBLIC "-//W3C//DTD SVG 1.1//EN" "http://www.w3.org/Graphics/SVG/1.1/DTD/svg11.dtd"><svg t="1559458653408" class="icon" style="" viewBox="0 0 1024 1024" version="1.1" xmlns="http://www.w3.org/2000/svg" p-id="7628" xmlns:xlink="http://www.w3.org/1999/xlink" width="32" height="32"><defs><style type="text/css"></style></defs><path d="M204.8 489.380978v34.178844a85.333333 85.333333 0 0 0 0 170.302578V716.8a11.377778 11.377778 0 0 0 10.0352 11.298133c-1.4336 0.056889-2.889956 0.079644-4.346311 0.079645C144.509156 728.177778 91.022222 674.690844 91.022222 608.711111c0-64.068267 50.437689-116.360533 113.777778-119.330133zM809.1648 728.098133A11.377778 11.377778 0 0 0 819.2 716.8v-22.9376a85.333333 85.333333 0 0 0 0-170.302578v-34.178844c63.340089 2.958222 113.777778 55.261867 113.777778 119.330133C932.977778 674.690844 879.490844 728.177778 813.511111 728.177778c-1.456356 0-2.912711-0.022756-4.346311-0.079645z" p-id="7629"></path><path d="M219.352178 215.779556C312.433778 68.266667 479.049956 10.774756 719.1552 43.269689c-4.790044 22.004622-12.162844 42.063644-22.095644 60.188444 35.908267 12.367644 64.512 30.446933 85.788444 54.249245 14.313244 15.997156 41.3696 41.005511 67.527111 124.757333 4.437333 53.782756 1.6384 105.517511-8.419555 155.204267V659.911111c0 182.226489-147.729067 329.955556-329.955556 329.955556S182.044444 842.1376 182.044444 659.911111V419.5328c0-11.832889 1.001244-23.415467 2.924089-34.702222-2.639644-81.260089 8.817778-137.614222 34.383645-169.051022zM423.173689 273.066667c-113.106489 0-204.8 91.693511-204.8 204.8v182.044444c0 163.384889 132.437333 295.822222 295.822222 295.822222s295.822222-132.437333 295.822222-295.822222V477.866667c0-113.106489-91.704889-204.8-204.8-204.8h-182.044444z" p-id="7630"></path><path d="M388.187022 763.619556a17.066667 17.066667 0 0 1 28.421689-18.761956l0.068267-0.045511A113.675378 113.675378 0 0 0 512 796.444444a113.664 113.664 0 0 0 94.970311-51.0976 17.066667 17.066667 0 1 1 29.354667 17.385245l0.045511 0.034133A147.797333 147.797333 0 0 1 512 830.577778c-51.8144 0-97.393778-26.635378-123.812978-66.958222zM627.495822 404.081778h91.022222a22.755556 22.755556 0 1 1 0 45.511111h-91.022222a22.755556 22.755556 0 1 1 0-45.511111z m-227.555555 0a22.755556 22.755556 0 1 1 0 45.511111h-91.022223a22.755556 22.755556 0 1 1 0-45.511111h91.022223zM364.088889 523.377778a34.133333 34.133333 0 0 1 34.133333 34.133333v22.755556a34.133333 34.133333 0 0 1-68.266666 0v-22.755556a34.133333 34.133333 0 0 1 34.133333-34.133333z m295.822222 0a34.133333 34.133333 0 0 1 34.133333 34.133333v22.755556a34.133333 34.133333 0 0 1-68.266666 0v-22.755556a34.133333 34.133333 0 0 1 34.133333-34.133333z" p-id="7631"></path></svg>