<?xml version="1.0" standalone="no"?><!DOCTYPE svg PUBLIC "-//W3C//DTD SVG 1.1//EN" "http://www.w3.org/Graphics/SVG/1.1/DTD/svg11.dtd"><svg t="1559458775650" class="icon" style="" viewBox="0 0 1024 1024" version="1.1" xmlns="http://www.w3.org/2000/svg" p-id="8476" xmlns:xlink="http://www.w3.org/1999/xlink" width="32" height="32"><defs><style type="text/css"></style></defs><path d="M694 415H294c-13.8 0-25 11.2-25 25s11.2 25 25 25h400c13.8 0 25-11.2 25-25s-11.2-25-25-25zM525 543H294c-13.8 0-25 11.2-25 25s11.2 25 25 25h231c13.8 0 25-11.2 25-25s-11.2-25-25-25z" fill="" p-id="8477"></path><path d="M957.4 349c-24.5-49.2-59.6-93.3-104.1-131-44.2-37.5-95.7-66.9-152.9-87.5-59-21.2-121.7-31.9-186.2-31.9S387 109.3 328 130.5c-57.2 20.5-108.7 50-152.9 87.5-44.5 37.8-79.6 81.9-104.1 131-25.6 51.2-38.5 105.7-38.5 161.9 0 57.7 13.7 113.6 40.6 166 23.9 46.5 57.2 88.3 99.1 124.4-6.3 14-21.4 39.2-31.2 55.5-11.2 18.6-22.8 37.9-30.4 53.4-4.8 9.7-7.7 17.2-9.3 23.7-5.6 23.5 8.4 34.1 12.8 36.8 5.1 3.1 10.5 4.4 16.2 4.4 13.2 0 27.7-7.2 42.5-15.4 17.1-9.5 38.2-23 58.5-36.1 23.3-15 57.5-37 71.2-42.2 66.2 27.8 137.5 41.9 211.9 41.9 64.6 0 127.2-10.7 186.2-31.9 57.2-20.5 108.7-50 152.9-87.5 44.5-37.8 79.6-81.9 104.1-131 25.6-51.2 38.5-105.7 38.5-161.9-0.2-56.3-13.1-110.8-38.7-162zM514.1 873.2c-69.7 0-136.2-13.5-197.7-40.2-21.1-9.1-45.4 5.3-112.5 48.5-10.6 6.8-21.5 13.8-31.7 20.2 4-6.9 8-13.5 11.4-19.1 11-18.3 22.4-37.2 30-52.6 4.7-9.5 7.7-16.8 9.4-23.2 5.3-20.2-3.5-31.1-9.2-35.7C129 702.2 82.3 609.8 82.3 510.9c0-199.8 193.7-362.3 431.8-362.3 238.1 0 431.8 162.5 431.8 362.3S752.2 873.2 514.1 873.2z" fill="" p-id="8478"></path></svg>