<?xml version="1.0" standalone="no"?><!DOCTYPE svg PUBLIC "-//W3C//DTD SVG 1.1//EN" "http://www.w3.org/Graphics/SVG/1.1/DTD/svg11.dtd"><svg t="1559540024684" class="icon" style="" viewBox="0 0 1024 1024" version="1.1" xmlns="http://www.w3.org/2000/svg" p-id="13877" xmlns:xlink="http://www.w3.org/1999/xlink" width="16" height="16"><defs><style type="text/css"></style></defs><path d="M759.881143 637.805714l-14.628572-4.87619-9.752381-2.438095h-2.438095l-7.314285-4.876191c-19.504762 9.752381-41.447619 17.066667-63.390477 24.380952l9.752381 4.876191h2.438096l85.333333 36.571429 12.190476 4.87619v68.266667l146.285714 60.952381v-121.904762l-158.47619-65.828572z" fill="#49A9EE" p-id="13878"></path><path d="M996.376381 628.053333c-4.87619 7.314286-9.752381 12.190476-14.628571 19.504762l-2.438096 2.438095-14.628571 14.628572-4.876191 4.87619c-4.87619 4.87619-9.752381 9.752381-17.066666 14.628572l-4.876191 4.87619c-7.314286 4.87619-14.628571 9.752381-24.380952 17.066667v119.466667c60.952381-36.571429 97.52381-82.895238 97.523809-134.095238v-119.466667c2.438095 19.504762-4.87619 39.009524-14.628571 56.07619" fill="#1F88D9" p-id="13879"></path><path d="M1013.443048 562.224762c-2.438095-48.761905-39.009524-92.647619-97.52381-126.780952l-321.828571 134.095238 141.409523 58.514285 24.380953 9.752381 158.47619 65.828572c31.695238-17.066667 60.952381-43.885714 80.457143-75.580953 12.190476-17.066667 17.066667-39.009524 17.066667-58.514285-2.438095-2.438095-2.438095-4.87619-2.438095-7.314286" fill="#FFBF00" p-id="13880"></path><path d="M1013.443048 472.015238v-7.314286c-2.438095-48.761905-39.009524-92.647619-97.52381-126.780952l-321.828571 134.095238 321.828571 134.095238c60.952381-36.571429 97.52381-82.895238 97.52381-134.095238" fill="#49A9EE" p-id="13881"></path><path d="M915.919238 486.64381v119.466666c60.952381-36.571429 97.52381-82.895238 97.52381-134.095238v-119.466667c0 53.638095-36.571429 99.961905-97.52381 134.095239" fill="#1F88D9" p-id="13882"></path><path d="M686.738286 391.558095l-70.704762-29.257143v109.714286h-24.380953l324.266667 134.095238v-119.466666z" fill="#49A9EE" p-id="13883"></path><path d="M1013.443048 347.672381c-2.438095-43.885714-34.133333-85.333333-82.895238-119.466667l-170.666667 73.142857-143.847619 60.952381 70.704762 29.257143 229.180952 95.085715c60.952381-36.571429 97.52381-82.895238 97.52381-134.095239v-4.87619" fill="#FFBF00" p-id="13884"></path><path d="M586.776381 415.939048v-73.142858l173.104762-73.142857v-51.2l-321.828572 136.533334z" fill="#49A9EE" p-id="13885"></path><path d="M586.776381 415.939048l-148.72381-60.952381 321.828572-134.095238c-75.580952-46.32381-190.171429-73.142857-319.390476-73.142858-226.742857-2.438095-416.914286 87.771429-424.228572 199.92381v7.314286c0 114.590476 192.609524 209.67619 424.228572 209.67619 129.219048 0 243.809524-29.257143 319.390476-75.580952l-173.104762-73.142857zM635.538286 669.500952l-19.504762-7.314285-24.380953 4.87619c-51.2 9.752381-102.4 14.628571-153.6 14.628572-197.485714 0-365.714286-68.266667-412.038095-160.914286-7.314286 12.190476-9.752381 26.819048-12.190476 41.447619v7.314286c0 114.590476 192.609524 209.67619 424.228571 209.67619 90.209524 0 177.980952-14.628571 260.876191-46.323809 14.628571-4.87619 26.819048-12.190476 41.447619-19.504762l-104.838095-43.885715z" fill="#1F88D9" p-id="13886"></path><path d="M733.062095 749.958095s0 2.438095 0 0z m7.314286-36.571428c-12.190476 7.314286-26.819048 12.190476-41.447619 19.504762-82.895238 31.695238-170.666667 46.32381-260.876191 46.323809-229.180952-2.438095-421.790476-95.085714-421.790476-209.67619v119.466666c0 114.590476 192.609524 209.67619 424.228572 209.676191 104.838095 2.438095 207.238095-19.504762 302.323809-63.390476l-2.438095-121.904762z" fill="#49A9EE" p-id="13887"></path><path d="M759.881143 703.634286zM740.376381 749.958095v7.314286l9.752381-4.876191zM740.376381 749.958095l7.314286 2.438095-7.314286-2.438095zM750.128762 752.39619z" fill="#FFFFFF" p-id="13888"></path><path d="M442.928762 562.224762h-2.438095c-151.161905 0-285.257143-41.447619-360.838096-99.961905-36.571429-24.380952-58.514286-63.390476-60.952381-107.27619v119.466666c0 17.066667 4.87619 34.133333 12.190477 48.761905 43.885714 92.647619 214.552381 160.914286 412.038095 160.914286 51.2 0 102.4-4.87619 153.6-14.628572l24.380952-4.87619c9.752381-2.438095 17.066667-4.87619 24.380953-7.314286l19.504762-4.87619c21.942857-7.314286 41.447619-14.628571 63.390476-24.380953 12.190476-4.87619 24.380952-12.190476 34.133333-17.066666v-119.466667c-78.019048 41.447619-192.609524 70.704762-319.390476 70.704762" fill="#49A9EE" p-id="13889"></path></svg>