<?xml version="1.0" standalone="no"?><!DOCTYPE svg PUBLIC "-//W3C//DTD SVG 1.1//EN" "http://www.w3.org/Graphics/SVG/1.1/DTD/svg11.dtd"><svg t="1559539709119" class="icon" style="" viewBox="0 0 1024 1024" version="1.1" xmlns="http://www.w3.org/2000/svg" p-id="9134" xmlns:xlink="http://www.w3.org/1999/xlink" width="16" height="16"><defs><style type="text/css"></style></defs><path d="M822.186667 507.733333c5.973333-12.373333 12.373333-25.173333 17.493333-38.4 46.933333 2.56 94.72-11.52 117.76-55.893333l5.973333-11.52-11.093333-6.4c-26.88-15.786667-63.146667-17.92-93.866667-8.533333-3.84-32.853333-25.173333-61.44-50.773333-81.92l-10.24-8.106667-8.533333 9.813333c-17.066667 19.626667-22.186667 52.48-19.626667 77.653334 1.28 18.773333 7.68 37.12 18.773333 52.48-8.533333 5.12-17.92 9.386667-27.306666 12.373333-18.346667 5.973333-37.12 9.386667-56.32 9.386667H174.08l-1.706667 11.946666c-1.706667 16.213333-1.706667 32 0 48.213334 0.426667 5.973333 1.28 11.946667 2.56 17.92 3.413333 17.92 8.533333 35.84 16.213334 52.48l7.253333 14.933333 0.853333 1.28c49.92 84.906667 137.386667 120.32 232.96 120.32 159.146667 0 293.973333-61.013333 373.333334-189.013333 0 0.426667 14.933333-25.6 16.64-29.013334z" fill="#039BC6" p-id="9135"></path><path d="M432.213333 730.453333c-106.24 0-190.293333-43.52-236.8-122.453333l-0.853333-1.706667-7.253333-14.933333c-7.68-17.066667-13.226667-35.413333-16.64-53.76-1.28-5.973333-2.133333-12.373333-2.56-18.346667-1.706667-16.213333-1.706667-32.853333 0-49.066666l2.133333-16.213334h534.186667c18.773333 0 37.12-2.986667 55.04-8.96 7.68-2.56 15.36-5.973333 22.613333-9.813333-9.813333-14.933333-15.786667-32.426667-17.066667-50.346667-2.133333-23.466667 2.133333-58.88 20.906667-81.066666l11.093333-13.226667 13.226667 10.666667c16.64 13.226667 45.226667 41.386667 51.626667 79.786666 32-8.106667 66.986667-4.266667 92.586666 10.24l14.506667 8.533334-7.68 14.933333c-27.306667 53.333333-84.48 59.733333-118.613333 58.453333-3.84 9.813333-8.533333 18.773333-12.8 28.16l-3.84 8.106667c-1.28 2.986667-14.933333 26.88-16.64 29.44-76.373333 123.733333-210.346667 191.573333-377.173334 191.573333z m-229.973333-128l0.853333 1.28c44.8 76.373333 126.293333 118.186667 229.546667 118.186667 163.84 0 294.826667-66.56 369.493333-187.306667l16.213334-28.586666 3.84-8.106667c4.693333-9.813333 9.386667-20.053333 13.653333-30.293333l1.28-2.986667h2.986667c31.146667 1.706667 87.466667-2.986667 113.493333-53.76l3.84-7.68-7.68-4.266667c-24.746667-14.506667-59.306667-17.493333-90.453333-8.533333l-4.693334 1.28v-4.266667c-4.266667-37.973333-32.853333-65.706667-49.066666-78.933333L797.866667 302.933333l-5.973334 6.826667c-17.066667 20.053333-20.906667 52.48-18.773333 74.666667 1.28 17.92 7.253333 35.413333 17.92 49.92l2.986667 3.84-4.266667 2.56c-8.96 5.12-18.346667 9.386667-28.16 12.8-18.346667 6.4-37.973333 9.813333-57.6 9.813333H177.92l-1.28 8.533333c-1.706667 15.786667-1.706667 31.573333 0 47.36 0.426667 5.973333 1.28 11.52 2.56 17.493334 2.986667 17.92 8.533333 35.413333 15.786667 52.053333l7.253333 13.653333z" fill="#231815" p-id="9136"></path><path d="M858.453333 386.133333c-3.84-32.853333-23.893333-59.306667-49.493333-79.786666l-10.24-8.106667-8.533333 9.813333c-17.066667 19.626667-22.186667 52.48-19.626667 77.653334 1.28 18.773333 7.68 37.12 18.773333 52.48-8.533333 5.12-17.92 9.386667-27.306666 12.373333-18.346667 5.973333-37.12 9.386667-56.32 9.386667H175.786667l-1.706667 11.946666c-1.706667 16.213333-1.706667 32 0 48.213334 1.28 13.226667 0.426667 11.093333 0.426667 11.093333 31.146667-1.706667 467.2 2.133333 561.92 2.133333 45.226667-37.546667 87.04-106.666667 122.026666-147.2z" fill="#00CFFF" p-id="9137"></path><path d="M392.106667 582.4m-22.613334 0a22.613333 22.613333 0 1 0 45.226667 0 22.613333 22.613333 0 1 0-45.226667 0Z" fill="#FFFFFF" p-id="9138"></path><path d="M409.6 582.4c0-0.853333 0-2.133333-0.426667-2.986667h-17.066666l8.106666-12.373333c-8.533333-4.266667-19.2-1.28-23.466666 7.253333s-1.28 19.2 7.253333 23.466667 19.2 1.28 23.466667-7.253333c1.28-2.56 2.133333-5.12 2.133333-8.106667z" fill="#212D30" p-id="9139"></path><path d="M578.986667 376.32h81.066666v81.066667h-81.066666z" fill="#00ACD3" p-id="9140"></path><path d="M664.32 461.653333h-89.6v-89.6h89.6v89.6z m-81.066667-8.533333h72.533334v-72.533333h-72.533334v72.533333z" fill="#212D30" p-id="9141"></path><path d="M497.92 376.32h81.066667v81.066667h-81.066667z" fill="#20C2EF" p-id="9142"></path><path d="M583.253333 461.653333h-89.6v-89.6h89.6v89.6z m-81.066666-8.533333h72.533333v-72.533333h-72.533333v72.533333z" fill="#212D30" p-id="9143"></path><path d="M497.92 295.253333h81.066667v81.066667h-81.066667z" fill="#00ACD3" p-id="9144"></path><path d="M583.253333 380.586667h-89.6v-89.6h89.6v89.6z m-81.066666-8.533334h72.533333v-72.533333h-72.533333v72.533333z" fill="#212D30" p-id="9145"></path><path d="M497.92 214.186667h81.066667v81.066666h-81.066667z" fill="#20C2EF" p-id="9146"></path><path d="M583.253333 299.52h-89.6v-89.6h89.6v89.6z m-81.066666-8.533333h72.533333v-72.533334h-72.533333v72.533334z" fill="#212D30" p-id="9147"></path><path d="M416.853333 295.253333h81.066667v81.066667h-81.066667z" fill="#20C2EF" p-id="9148"></path><path d="M502.186667 380.586667h-89.6v-89.6h89.6v89.6z m-81.066667-8.533334h72.533333v-72.533333h-72.533333v72.533333z" fill="#212D30" p-id="9149"></path><path d="M416.853333 376.32h81.066667v81.066667h-81.066667z" fill="#00ACD3" p-id="9150"></path><path d="M502.186667 461.653333h-89.6v-89.6h89.6v89.6z m-81.066667-8.533333h72.533333v-72.533333h-72.533333v72.533333z" fill="#212D30" p-id="9151"></path><path d="M335.786667 376.32h81.066666v81.066667h-81.066666z" fill="#20C2EF" p-id="9152"></path><path d="M421.12 461.653333h-89.6v-89.6h89.6v89.6z m-81.066667-8.533333h72.533334v-72.533333h-72.533334v72.533333z" fill="#212D30" p-id="9153"></path><path d="M822.186667 508.586667c5.973333-12.373333 12.373333-25.173333 17.493333-38.4 46.933333 2.56 94.72-11.52 117.76-55.893334l5.973333-11.52-11.093333-6.4c-26.88-15.786667-63.146667-17.92-93.866667-8.533333-29.013333 32.426667-63.573333 84.053333-71.68 92.16-19.626667 25.173333-136.106667 171.52-336.64 178.773333-120.746667 4.693333-192-44.373333-219.306666-133.12-5.973333-20.053333-57.173333 5.973333-55.893334 11.946667 3.413333 17.92 8.533333 35.84 16.213334 52.48l7.253333 14.933333 0.853333 1.28c49.92 84.906667 137.813333 120.746667 232.96 120.746667 159.146667 0 293.973333-61.013333 373.333334-189.013333 0 0 14.933333-26.453333 16.64-29.44z" fill="#0498BA" p-id="9154"></path><path d="M335.786667 295.253333h81.066666v81.066667h-81.066666z" fill="#00ACD3" p-id="9155"></path><path d="M421.12 380.586667h-89.6v-89.6h89.6v89.6z m-81.066667-8.533334h72.533334v-72.533333h-72.533334v72.533333z" fill="#212D30" p-id="9156"></path><path d="M254.72 376.32h81.066667v81.066667h-81.066667z" fill="#00ACD3" p-id="9157"></path><path d="M340.053333 461.653333h-89.6v-89.6h89.6v89.6z m-81.066666-8.533333h72.533333v-72.533333h-72.533333v72.533333zM820.053333 508.16c-5.973333 11.52-13.226667 23.466667-16.64 29.44H174.08c-0.853333-5.973333-2.133333-18.346667-2.133333-18.346667 17.066667-5.12 33.28-12.373333 48.64-21.333333 75.52 63.573333 201.386667 0 201.386666 0 94.72 63.573333 181.333333 0 181.333334 0 128 68.266667 204.8 0 204.8 0 3.84 3.84 8.106667 7.253333 11.946666 10.24" fill="#212D30" p-id="9158"></path><path d="M174.506667 519.253333c-34.56 9.813333-80.64 13.226667-118.186667-21.333333 0 0-20.48 34.133333-49.92 39.68h170.666667M800.853333 537.6H1024s-56.32-5.546667-57.6-39.68c0 0-83.626667 57.6-149.333333 10.24M591.36 389.12h4.266667v55.466667h-4.266667zM601.6 389.12h4.266667v55.466667h-4.266667zM612.266667 389.12h4.266666v55.466667h-4.266666zM622.08 389.12h4.266667v55.466667h-4.266667zM633.173333 389.12h4.266667v55.466667h-4.266667zM643.84 389.12h4.266667v55.466667h-4.266667zM510.293333 389.12h4.266667v55.466667h-4.266667zM520.533333 389.12h4.266667v55.466667h-4.266667zM531.2 389.12h4.266667v55.466667h-4.266667zM541.013333 389.12h4.266667v55.466667h-4.266667zM552.106667 389.12h4.266666v55.466667h-4.266666zM562.773333 389.12h4.266667v55.466667h-4.266667zM510.293333 308.053333h4.266667v55.466667h-4.266667zM520.533333 308.053333h4.266667v55.466667h-4.266667zM531.2 308.053333h4.266667v55.466667h-4.266667zM541.013333 308.053333h4.266667v55.466667h-4.266667zM552.106667 308.053333h4.266666v55.466667h-4.266666zM562.773333 308.053333h4.266667v55.466667h-4.266667zM510.293333 224h4.266667v61.44h-4.266667zM520.533333 224h4.266667v61.44h-4.266667zM531.2 224h4.266667v61.44h-4.266667zM541.013333 224h4.266667v61.44h-4.266667zM552.106667 224h4.266666v61.44h-4.266666zM562.773333 224h4.266667v61.44h-4.266667zM429.226667 308.053333h4.266666v55.466667h-4.266666zM439.466667 308.053333h4.266666v55.466667h-4.266666zM450.133333 308.053333h4.266667v55.466667h-4.266667zM459.946667 308.053333h4.266666v55.466667h-4.266666zM471.04 308.053333h4.266667v55.466667h-4.266667zM481.706667 308.053333h4.266666v55.466667h-4.266666zM347.733333 308.053333h4.266667v55.466667h-4.266667zM358.4 308.053333h4.266667v55.466667h-4.266667zM369.066667 308.053333h4.266666v55.466667h-4.266666zM378.88 308.053333h4.266667v55.466667h-4.266667zM389.973333 308.053333h4.266667v55.466667h-4.266667zM400.64 308.053333h4.266667v55.466667h-4.266667zM429.226667 389.12h4.266666v55.466667h-4.266666zM439.466667 389.12h4.266666v55.466667h-4.266666zM450.133333 389.12h4.266667v55.466667h-4.266667zM459.946667 389.12h4.266666v55.466667h-4.266666zM471.04 389.12h4.266667v55.466667h-4.266667zM481.706667 389.12h4.266666v55.466667h-4.266666zM347.733333 389.12h4.266667v55.466667h-4.266667zM358.4 389.12h4.266667v55.466667h-4.266667zM369.066667 389.12h4.266666v55.466667h-4.266666zM378.88 389.12h4.266667v55.466667h-4.266667zM389.973333 389.12h4.266667v55.466667h-4.266667zM400.64 389.12h4.266667v55.466667h-4.266667zM266.666667 389.12h4.266666v55.466667h-4.266666zM277.333333 389.12h4.266667v55.466667h-4.266667zM288 389.12h4.266667v55.466667h-4.266667zM297.813333 389.12h4.266667v55.466667h-4.266667zM308.906667 389.12h4.266666v55.466667h-4.266666zM319.573333 389.12h4.266667v55.466667h-4.266667z" fill="#212D30" p-id="9159"></path><path d="M331.946667 619.52c-3.84 0.426667-43.093333 3.84-77.226667 2.986667h-40.533333l5.546666 7.253333c85.76 110.506667 230.826667 94.293333 230.826667 94.293333-98.986667-49.92-118.613333-104.533333-118.613333-104.533333z" fill="#D4EDF1" p-id="9160"></path><path d="M258.986667 623.786667c-17.493333 0-35.413333-0.853333-52.906667-2.56-2.56-0.426667-3.84-2.56-3.413333-4.693334 0.426667-2.56 2.56-3.84 4.693333-3.84 46.08 4.693333 92.586667 2.986667 138.24-4.266666 2.56-0.426667 4.693333 1.28 5.12 3.413333 0.426667 2.56-1.28 4.693333-3.413333 5.12-29.44 4.693333-58.88 6.826667-88.32 6.826667z" fill="#212D30" p-id="9161"></path><path d="M432.213333 730.453333c-106.24 0-190.293333-43.52-236.8-122.453333l-0.853333-1.706667-7.253333-14.933333c-7.68-17.066667-13.226667-35.413333-16.64-53.76-1.28-5.973333-2.133333-12.373333-2.56-18.346667-1.706667-16.213333-1.706667-32.853333 0-49.066666l2.133333-16.213334h534.186667c18.773333 0 37.12-2.986667 55.04-8.96 7.68-2.56 15.36-5.973333 22.613333-9.813333-9.813333-14.933333-15.786667-32.426667-17.066667-50.346667-2.133333-23.466667 2.133333-58.88 20.906667-81.066666l11.093333-13.226667 13.226667 10.666667c16.64 13.226667 45.226667 41.386667 51.626667 79.786666 32-8.106667 66.986667-4.266667 92.586666 10.24l14.506667 8.533334-7.68 14.933333c-27.306667 53.333333-84.48 59.733333-118.613333 58.453333-3.84 9.813333-8.533333 18.773333-12.8 28.16l-3.84 8.106667c-1.28 2.986667-14.933333 26.88-16.64 29.44-76.373333 123.733333-210.346667 191.573333-377.173334 191.573333z m-229.973333-128l0.853333 1.28c44.8 76.373333 126.293333 118.186667 229.546667 118.186667 163.84 0 294.826667-66.56 369.493333-187.306667l16.213334-28.586666 3.84-8.106667c4.693333-9.813333 9.386667-20.053333 13.653333-30.293333l1.28-2.986667h2.986667c31.146667 1.706667 87.466667-2.986667 113.493333-53.76l3.84-7.68-7.68-4.266667c-24.746667-14.506667-59.306667-17.493333-90.453333-8.533333l-4.693334 1.28v-4.266667c-4.266667-37.973333-32.853333-65.706667-49.066666-78.933333L797.866667 302.933333l-5.973334 6.826667c-17.066667 20.053333-20.906667 52.48-18.773333 74.666667 1.28 17.92 7.253333 35.413333 17.92 49.92l2.986667 3.84-4.266667 2.56c-8.96 5.12-18.346667 9.386667-28.16 12.8-18.346667 6.4-37.973333 9.813333-57.6 9.813333H177.92l-1.28 8.533333c-1.706667 15.786667-1.706667 31.573333 0 47.36 0.426667 5.973333 1.28 11.52 2.56 17.493334 2.986667 17.92 8.533333 35.413333 15.786667 52.053333l7.253333 13.653333z" fill="#212D30" p-id="9162"></path></svg>