<?xml version="1.0" standalone="no"?><!DOCTYPE svg PUBLIC "-//W3C//DTD SVG 1.1//EN" "http://www.w3.org/Graphics/SVG/1.1/DTD/svg11.dtd"><svg t="1559460127934" class="icon" style="" viewBox="0 0 1024 1024" version="1.1" xmlns="http://www.w3.org/2000/svg" p-id="6831" xmlns:xlink="http://www.w3.org/1999/xlink" width="32" height="32"><defs><style type="text/css"></style></defs><path d="M511.36 545.414c21.15 0 40.3-8.578 54.166-22.435l375.209-375.212c-1.918-1.006-3.947-1.818-6.033-2.506-0.916-0.298-1.814-0.631-2.757-0.864-0.805-0.201-1.646-0.332-2.478-0.487-2.085-0.354-4.199-0.64-6.387-0.64H99.639c-2.187 0-4.3 0.286-6.396 0.64-0.823 0.155-1.664 0.286-2.47 0.487-0.944 0.234-1.85 0.566-2.758 0.864-2.085 0.688-4.114 1.5-6.03 2.506l375.217 375.212c13.857 13.857 33.007 22.435 54.158 22.435M61.358 181.307c0 0.088-0.018 0.173-0.018 0.261v536.195c0 0.504 0.13 0.986 0.149 1.49L330.4 450.344 61.358 181.308z m531.249 368.75c-20.795 20.796-49.52 33.656-81.247 33.656s-60.45-12.86-81.247-33.656l-72.624-72.635-274.624 274.62a41.062 41.062 0 0 0 7.64 2.805c0.178 0.037 0.328 0.111 0.504 0.15a36.038 36.038 0 0 0 8.631 1.066h823.441c2.984 0 5.864-0.386 8.631-1.067 0.168-0.038 0.328-0.112 0.495-0.15a40.394 40.394 0 0 0 7.64-2.804L665.24 477.423l-72.633 72.634z m368.746-368.75L692.32 450.345l268.913 268.91c0.018-0.506 0.147-0.987 0.147-1.491V181.569c0-0.09-0.027-0.174-0.027-0.262" fill="#FFFFFF" p-id="6832"></path><path d="M291.137 258.163h153.2v-19.149h-153.2v19.15z m0-38.299h210.649v-19.15H291.137v19.15z" fill="#EE6A56" p-id="6833"></path><path d="M118.79 689.034H99.638v19.15h19.15v-19.15z m-57.45 19.15H80.49v-19.15H61.34v19.15z m19.149-19.15h19.15v-19.149h-19.15v19.15z m38.3-38.3H99.64v19.151h19.15v-19.15zM61.34 669.885H80.49v-19.15H61.34v19.15z m19.149-19.15h19.15v-19.15h-19.15v19.15z m38.3-38.301H99.64v19.151h19.15v-19.151zM61.34 631.585H80.49v-19.151H61.34v19.151z m19.149-19.151h19.15v-19.149h-19.15v19.149z m38.3-38.298H99.64v19.15h19.15v-19.15z m-57.449 19.15H80.49v-19.15H61.34v19.15z m19.149-19.15h19.15v-19.151h-19.15v19.151z m38.3-38.3H99.64v19.149h19.15v-19.149zM61.34 554.985H80.49v-19.149H61.34v19.149z m19.149-19.149h19.15v-19.15h-19.15v19.15z m38.3-38.3H99.64v19.15h19.15v-19.15z m-57.449 19.15H80.49v-19.15H61.34v19.15z m19.149-19.15h19.15v-19.15h-19.15v19.15z m38.3-38.3H99.64v19.15h19.15v-19.15z m-57.449 19.15H80.49v-19.15H61.34v19.15z m19.149-19.15h19.15v-19.149h-19.15v19.149z m38.3-38.299H99.64v19.15h19.15v-19.15z m-57.449 19.15H80.49v-19.15H61.34v19.15z m19.149-19.15h19.15v-19.15h-19.15v19.15z m38.3-38.3H99.64v19.15h19.15v-19.15z m-57.449 19.15H80.49v-19.15H61.34v19.15z m19.149-19.15h19.15v-19.15h-19.15v19.15z m38.3-38.3H99.64v19.15h19.15v-19.15z m-57.449 19.15H80.49v-19.15H61.34v19.15z m19.149-19.15h19.15v-19.15h-19.15v19.15z m38.3-38.3H99.64v19.15h19.15v-19.15z m-57.449 19.15H80.49v-19.15H61.34v19.15z m19.149-19.15h19.15v-19.15h-19.15v19.15z m38.3-38.298H99.64v19.149h19.15v-19.15zM61.34 286.888H80.49v-19.15H61.34v19.15z m19.149-19.15h19.15v-19.15h-19.15v19.15z m38.3-38.3H99.64v19.15h19.15v-19.15z m-57.449 19.15H80.49v-19.15H61.34v19.15z m19.149-19.15h19.15v-19.15h-19.15v19.15z m19.15-19.15h19.15V191.14H99.64v19.149z m-38.299 0H80.49V191.14H61.34v19.149z m900.04 478.746H942.23v19.15h19.149v-19.15z m-57.45 19.15h19.15v-19.15h-19.15v19.15z m19.15-19.15h19.151v-19.149H923.08v19.15z m38.3-38.3H942.23v19.151h19.149v-19.15z m-57.45 19.151h19.15v-19.15h-19.15v19.15z m19.15-19.15h19.151v-19.15H923.08v19.15z m38.3-38.301H942.23v19.151h19.149v-19.151z m-57.45 19.151h19.15v-19.151h-19.15v19.151z m19.15-19.151h19.151v-19.149H923.08v19.149z m38.3-38.298H942.23v19.15h19.149v-19.15z m-57.45 19.15h19.15v-19.15h-19.15v19.15z m19.15-19.15h19.151v-19.151H923.08v19.151z m38.3-38.3H942.23v19.149h19.149v-19.149z m-57.45 19.149h19.15v-19.149h-19.15v19.149z m19.15-19.149h19.151v-19.15H923.08v19.15z m38.3-38.3H942.23v19.15h19.149v-19.15z m-57.45 19.15h19.15v-19.15h-19.15v19.15z m19.15-19.15h19.151v-19.15H923.08v19.15z m38.3-38.3H942.23v19.15h19.149v-19.15z m-57.45 19.15h19.15v-19.15h-19.15v19.15z m19.15-19.15h19.151v-19.149H923.08v19.149z m38.3-38.299H942.23v19.15h19.149v-19.15z m-57.45 19.15h19.15v-19.15h-19.15v19.15z m19.15-19.15h19.151v-19.15H923.08v19.15z m38.3-38.3H942.23v19.15h19.149v-19.15z m-57.45 19.15h19.15v-19.15h-19.15v19.15z m19.15-19.15h19.151v-19.15H923.08v19.15z m38.3-38.3H942.23v19.15h19.149v-19.15z m-57.45 19.15h19.15v-19.15h-19.15v19.15z m19.15-19.15h19.151v-19.15H923.08v19.15z m38.3-38.3H942.23v19.15h19.149v-19.15z m-57.45 19.15h19.15v-19.15h-19.15v19.15z m19.15-19.15h19.151v-19.15H923.08v19.15z m38.3-38.298H942.23v19.149h19.149v-19.15z m-57.45 19.149h19.15v-19.15h-19.15v19.15z m19.15-19.15h19.151v-19.15H923.08v19.15z m38.3-38.3H942.23v19.15h19.149v-19.15z m-57.45 19.15h19.15v-19.15h-19.15v19.15z m19.15-19.15h19.151v-19.15H923.08v19.15z m38.3-38.298H942.23v19.149h19.149v-19.15z m-57.45 19.149h19.15v-19.15h-19.15v19.15z" fill="" p-id="6834"></path><path d="M923.08 104.965H99.639c-42.301 0-76.599 34.298-76.599 76.6v536.192c0 42.303 34.298 76.6 76.599 76.6h823.44c42.303 0 76.601-34.297 76.601-76.6V181.564c0-42.301-34.298-76.599-76.6-76.599m-823.441 38.3h823.44c6.406 0 12.353 1.72 17.656 4.498l-375.21 375.21c-13.865 13.868-33.014 22.436-54.165 22.436s-40.3-8.568-54.167-22.436L81.985 147.762c5.302-2.776 11.249-4.497 17.654-4.497m-38.299 38.3c0-0.09 0.027-0.174 0.027-0.263L330.4 450.34 61.489 719.25c-0.018-0.506-0.149-0.987-0.149-1.493V181.564z m861.74 574.493H99.639c-6.042 0-11.688-1.522-16.774-4.022l274.613-274.609 72.635 72.626c20.786 20.794 49.512 33.656 81.247 33.656s60.46-12.862 81.247-33.656l72.633-72.626 274.615 274.609c-5.086 2.498-10.734 4.022-16.775 4.022m38.3-38.3c0 0.506-0.13 0.986-0.147 1.492L692.32 450.34l269.033-269.038c0 0.088 0.027 0.173 0.027 0.262v536.193z" fill="" p-id="6835"></path></svg>