<?xml version="1.0" standalone="no"?><!DOCTYPE svg PUBLIC "-//W3C//DTD SVG 1.1//EN" "http://www.w3.org/Graphics/SVG/1.1/DTD/svg11.dtd"><svg t="1559557830073" class="icon" style="" viewBox="0 0 1024 1024" version="1.1" xmlns="http://www.w3.org/2000/svg" p-id="9402" xmlns:xlink="http://www.w3.org/1999/xlink" width="16" height="16"><defs><style type="text/css"></style></defs><path d="M751.1 685.9H294.2c-23.7 0-43.2-19.4-43.2-43.2V364.1c0-23.7 19.4-43.2 43.2-43.2h456.9c23.7 0 43.2 19.4 43.2 43.2v278.6c0 23.8-19.4 43.2-43.2 43.2z" fill="#FEE632" p-id="9403"></path><path d="M124.37 756.852l279.65-253.71 27.952 30.81-279.65 253.709zM618.435 532.05l28.712-30.101 252.971 241.294-28.712 30.101z" fill="#231815" p-id="9404"></path><path d="M526.8 636.9h-1.5c-17.8-0.4-34.6-7.6-47.4-20.4l-0.4-0.4-347.1-367 30.2-28.6 346.9 366.8c5.1 5 11.8 7.9 18.7 8 6.5 0.1 12.5-2.1 17-6.5l327-365.7 31 27.7-327.8 366.7-0.4 0.5c-12.3 12.2-28.6 18.9-46.2 18.9z" fill="#231815" p-id="9405"></path><path d="M841.4 823.7H173.1c-48 0-87-39-87-87V286.9c0-48 39-87 87-87h668.3c48 0 87 39 87 87v449.9c0 47.9-39 86.9-87 86.9zM173.1 241.5c-25 0-45.4 20.4-45.4 45.4v449.9c0 25 20.4 45.4 45.4 45.4h668.3c25 0 45.4-20.4 45.4-45.4V286.9c0-25-20.4-45.4-45.4-45.4H173.1z" fill="#231815" p-id="9406"></path></svg>