<?xml version="1.0" standalone="no"?><!DOCTYPE svg PUBLIC "-//W3C//DTD SVG 1.1//EN" "http://www.w3.org/Graphics/SVG/1.1/DTD/svg11.dtd"><svg t="1559539788207" class="icon" style="" viewBox="0 0 1109 1024" version="1.1" xmlns="http://www.w3.org/2000/svg" p-id="13597" xmlns:xlink="http://www.w3.org/1999/xlink" width="17.328125" height="16"><defs><style type="text/css"></style></defs><path d="M1010.12992 19.24096H98.98496C44.31872 19.29216 0.02048 63.60576 0 118.272v766.80704c0.02048 54.66112 44.32896 98.95936 98.98496 98.98496h911.36c54.656-0.0256 98.95936-44.32384 98.97984-98.98496V118.272c-0.10752-54.7072-44.48256-99.00544-99.19488-99.03104zM414.03904 198.61504c0.85504-27.30496 24.74496-50.77504 51.584-50.77504 28.32896 0 52.43392 25.17504 51.62496 54.09792a51.41504 51.41504 0 0 1-51.62496 50.13504c-28.55936-0.05632-51.67104-23.24992-51.61472-51.80928 0-0.54784 0.01024-1.1008 0.03072-1.64864z m-149.97504-1.28c1.28-27.04896 26.24-50.56 52.864-49.49504 28.50304 0.85504 52.00896 26.83904 50.34496 55.37792a51.84 51.84 0 0 1-52.864 48.85504c-28.5952-0.75264-51.16928-24.5504-50.41152-53.1456 0.01536-0.52736 0.03584-1.05984 0.06656-1.59232z m-150.61504 0.84992c1.06496-27.264 25.17504-50.56 52.05504-50.34496 28.07296 0.21504 52.224 25.6 51.15904 54.528a51.49696 51.49696 0 0 1-52.01408 49.70496c-28.67712-0.37888-51.61472-23.936-51.23072-52.608l0.03072-1.28z m953.94304 686.89408c-0.11264 31.5392-25.71776 57.04192-57.26208 57.04192H98.98496c-31.49824-0.02048-57.02144-25.5488-57.04704-57.04192V389.888h1025.44896v495.19104z" p-id="13598"></path><path d="M199.46496 795.136H134.016V502.31296h65.45408v114.89792h59.904V502.31296h65.45408V795.136H259.41504v-133.97504H199.46496V795.136z m348.88704-250.53696H482.432V795.136H416.42496v-250.53696H351.01696v-42.28608H548.352v42.28608z m214.95808 0H697.344V795.136h-65.92v-250.53696h-65.45408v-42.28608h197.34016v42.28608z m92.16 250.53696H789.504V502.31296h131.88608c2.00192 0 10.57792 0 17.61792 1.23904 21.16096 3.75296 31.232 14.93504 34.72896 20.736 7.58784 12.46208 7.58784 31.09888 7.58784 43.99104v38.56896c0 27.392-1.53088 40.62208-12.62592 51.84-10.54208 10.752-25.64608 14.50496-57.856 14.50496h-55.37792V795.136z m0-249.68704V631.296h31.69792c13.60896 0 21.16096-1.23392 25.16992-5.80608 4.52608-4.94592 4.52608-14.49984 4.52608-20.30592v-29.86496c0-8.32 1.49504-17.02912-4.99712-23.63904-7.58784-7.88992-21.66784-6.23104-24.192-6.23104h-32.2048z" p-id="13599"></path></svg>