<?xml version="1.0" standalone="no"?><!DOCTYPE svg PUBLIC "-//W3C//DTD SVG 1.1//EN" "http://www.w3.org/Graphics/SVG/1.1/DTD/svg11.dtd"><svg t="1559559063013" class="icon" style="" viewBox="0 0 1024 1024" version="1.1" xmlns="http://www.w3.org/2000/svg" p-id="20463" xmlns:xlink="http://www.w3.org/1999/xlink" width="16" height="16"><defs><style type="text/css"></style></defs><path d="M233.6 224.5h438.2v715.9H233.6z" fill="#FFFFFF" p-id="20464"></path><path d="M671.8 957H233.6c-9.1 0-16.5-7.4-16.5-16.5V224.6c0-9.1 7.4-16.5 16.5-16.5h438.2c9.1 0 16.5 7.4 16.5 16.5v715.9c0 9.1-7.4 16.5-16.5 16.5z m-421.7-33.1h405.2V241.1H250.1v682.8z" fill="#3D2C1F" p-id="20465"></path><path d="M233.6 360.4h438.2v580.1H233.6z" fill="#F5CC49" p-id="20466"></path><path d="M433.1 835.4c-1.4 0-2.8-0.2-4.1-0.5l-25.5-6.5c-8.8-2.3-14.2-11.3-11.9-20.1l175.2-681.8c6.9-26.8 31.1-45.6 58.7-45.6 5.1 0 10.2 0.6 15.1 1.9l192.9 49.6c4.2 1.1 7.9 3.8 10.1 7.6 2.2 3.8 2.9 8.3 1.8 12.5l-6.5 25.4c-1.9 7.5-8.6 12.4-16 12.4-1.4 0-2.7-0.2-4.1-0.5l-192.1-49.4-1.7 0.3c-0.5 0.3-0.8 0.7-1 1.3L449 823.1c-1.1 4.2-3.8 7.9-7.6 10.1-2.5 1.4-5.4 2.2-8.3 2.2z" fill="#E95655" p-id="20467"></path><path d="M625.6 97.3c3.6 0 7.3 0.5 11 1.4l192.9 49.6-6.5 25.4-192.1-49.4c-1.6-0.4-3.1-0.6-4.7-0.6-3.3 0-6.6 0.9-9.5 2.6-4.3 2.5-7.4 6.6-8.6 11.4l-175 681-25.4-6.5 175.2-681.8c5.1-19.9 23-33.1 42.7-33.1m0-33.1c-35.2 0-66 23.8-74.8 58L375.6 804.1c-2.2 8.5-0.9 17.5 3.6 25.1 4.5 7.5 11.7 13 20.2 15.2l25.4 6.5c2.8 0.7 5.5 1 8.3 1 14.7 0 28.2-9.9 32-24.8L636.5 160l178.2 45.8c2.7 0.7 5.5 1 8.2 1 5.9 0 11.7-1.6 16.8-4.6 7.5-4.5 13-11.7 15.2-20.2l6.5-25.4c4.5-17.7-6.1-35.7-23.8-40.2L644.8 66.7c-6.3-1.7-12.7-2.5-19.2-2.5z" fill="#3D2C1F" p-id="20468"></path><path d="M671.8 957H233.6c-9.1 0-16.5-7.4-16.5-16.5V360.4c0-9.1 7.4-16.5 16.5-16.5h438.2c9.1 0 16.5 7.4 16.5 16.5v580.1c0 9.1-7.4 16.5-16.5 16.5z m-421.7-33.1h405.2v-547H250.1v547z" fill="#3D2C1F" p-id="20469"></path><path d="M295.5 699.3c-7.3 0-13.2-5.9-13.2-13.2l-0.9-253c0-7.3 5.9-13.2 13.2-13.3h0.1c7.3 0 13.2 5.9 13.2 13.2l0.9 253c0 7.4-5.9 13.3-13.3 13.3z" fill="#FFFFFF" p-id="20470"></path><path d="M296.8 739.8m-16.5 0a16.5 16.5 0 1 0 33 0 16.5 16.5 0 1 0-33 0Z" fill="#FFFFFF" p-id="20471"></path><path d="M233.6 870.5h438.2v70H233.6z" fill="#F08938" p-id="20472"></path><path d="M671.8 957H233.6c-9.1 0-16.5-7.4-16.5-16.5v-70c0-9.1 7.4-16.5 16.5-16.5h438.2c9.1 0 16.5 7.4 16.5 16.5v70c0 9.1-7.4 16.5-16.5 16.5z m-421.7-33.1h405.2V887H250.1v36.9z" fill="#3D2C1F" p-id="20473"></path></svg>