<?xml version="1.0" standalone="no"?><!DOCTYPE svg PUBLIC "-//W3C//DTD SVG 1.1//EN" "http://www.w3.org/Graphics/SVG/1.1/DTD/svg11.dtd"><svg t="1559559077850" class="icon" style="" viewBox="0 0 1024 1024" version="1.1" xmlns="http://www.w3.org/2000/svg" p-id="21393" xmlns:xlink="http://www.w3.org/1999/xlink" width="16" height="16"><defs><style type="text/css"></style></defs><path d="M445.73833 225.114786c0-4.93386 0.266695-9.734372 0.666738-14.401537 7.334116-80.008534 74.541284-142.548539 156.416684-142.548538 86.675912 0 157.083422 70.274163 157.083422 157.083422s-70.274163 157.083422-157.083422 157.083422" fill="#FFFA78" p-id="21394"></path><path d="M545.61565 1007.06486H210.646587c-4.400469 0-8.000853-3.333689-8.400896-7.734158l-66.140389-785.417111c-0.400043-4.93386 3.467036-9.200981 8.400896-9.200982h467.24984c4.93386 0 8.800939 4.267122 8.400896 9.200982l-66.140388 785.417111c-0.400043 4.400469-4.000427 7.734158-8.400896 7.734158z" fill="#FFFFFF" p-id="21395"></path><path d="M150.240143 399h455.78195l-45.071474 534.723704H195.311618z" fill="#FF84A0" p-id="21396"></path><path d="M630.424696 196.045018c-4.800512-5.200555-11.601237-8.134201-18.668658-8.134201H246.117037L182.910295 11.225304c-3.200341-8.800939-12.801365-13.334756-21.602304-10.267762-8.800939 3.200341-13.334756 12.801365-10.267762 21.602304L210.246544 187.910817H144.506198c-7.067421 0-13.868146 2.933646-18.668658 8.134201-4.800512 5.200555-7.200768 12.267975-6.667377 19.335396l66.140388 785.417111c1.06678 13.201408 12.00128 23.202475 25.202688 23.202475h334.969064c13.334756 0 24.135908-10.001067 25.202688-23.202475l66.140388-785.417111c0.800085-7.067421-1.600171-14.134841-6.400683-19.335396zM153.70718 221.647749H222.247824l58.806273 164.684233H167.575326L153.70718 221.647749z m384.174312 768.615319H218.380745l-3.733732-43.871346h326.834863l-3.600384 43.871346z m5.733945-69.207382H212.513453l-42.937914-509.387668H290.255078l162.817367 455.381907c2.400256 6.934073 8.934286 11.201195 15.86836 11.201195 1.866866 0 3.867079-0.266695 5.733945-0.933433 8.800939-3.200341 13.334756-12.801365 10.267762-21.602304l-158.816941-444.047365h260.561127l-43.071261 509.387668z m45.071474-534.723704H317.057937L258.118317 221.647749h344.43674l-13.868146 164.684233z" fill="#572C00" p-id="21397"></path><path d="M409.734489 502.477704c-19.735438 0-35.870493-16.135054-35.870492-35.870493 0-19.735438 16.135054-35.870493 35.870492-35.870492 19.735438 0 35.870493 16.135054 35.870493 35.870492 0.133348 19.735438-16.001707 35.870493-35.870493 35.870493z m0-54.939193c-10.534457 0-19.068701 8.534244-19.0687 19.0687s8.534244 19.068701 19.0687 19.068701 19.068701-8.534244 19.068701-19.068701-8.534244-19.068701-19.068701-19.0687z" fill="#572C00" p-id="21398"></path><path d="M508.011639 585.819927m-27.469597 0a27.469597 27.469597 0 1 0 54.939194 0 27.469597 27.469597 0 1 0-54.939194 0Z" fill="#572C00" p-id="21399"></path><path d="M254.651281 573.15191m-22.135695 0a22.135694 22.135694 0 1 0 44.271389 0 22.135694 22.135694 0 1 0-44.271389 0Z" fill="#572C00" p-id="21400"></path><path d="M350.928217 816.511201c-19.602091 0-35.603798-16.001707-35.603798-35.603798s16.001707-35.603798 35.603798-35.603797 35.603798 16.001707 35.603798 35.603797-16.001707 35.603798-35.603798 35.603798z m0-54.272456c-10.267762 0-18.802006 8.400896-18.802006 18.802006 0 10.267762 8.400896 18.802006 18.802006 18.802006s18.802006-8.400896 18.802005-18.802006-8.400896-18.802006-18.802005-18.802006zM602.688405 55.363345c-88.276083 0-160.950501 66.273736-168.951355 154.016429-0.53339 5.200555-0.666738-6.53403-0.666738-1.333476h25.336036c0-4.533817 0.266695 8.000853 0.666738 3.600384 2.933646-32.136761 16.135054-60.939834 36.137188-83.342223l200.82142 206.555366c-25.202688 21.335609-57.739492 34.40367-93.209942 34.40367v25.336036c93.609985 0 169.75144-76.141455 169.75144-169.751441S696.29839 55.363345 602.688405 55.363345z m12.934713 26.002774c27.869639 2.533604 53.47237 12.934713 74.541284 29.069767l-73.074461 81.34201-1.466823-110.411777z m-24.002561 110.145082L513.612236 111.235972c21.468957-16.801792 47.738425-27.469597 76.541498-29.869853l1.466823 110.145082z m154.283124 16.535097l-112.545338 3.467037 75.341369-84.008961C728.835194 149.240026 742.303297 177.109665 745.903681 208.046298z m0.800085 25.202689c-1.733518 31.736719-13.734798 60.806486-32.803499 83.742265l-78.141668-80.275229 110.945167-3.467036z" fill="#572C00" p-id="21401"></path></svg>