<?xml version="1.0" standalone="no"?><!DOCTYPE svg PUBLIC "-//W3C//DTD SVG 1.1//EN" "http://www.w3.org/Graphics/SVG/1.1/DTD/svg11.dtd"><svg t="1559539747695" class="icon" style="" viewBox="0 0 1024 1024" version="1.1" xmlns="http://www.w3.org/2000/svg" p-id="10880" xmlns:xlink="http://www.w3.org/1999/xlink" width="16" height="16"><defs><style type="text/css"></style></defs><path d="M854.016 301.69c-28.526 0-54.565 9.899-75.678 25.892l-161.5-121.124c6.876-17.262 10.923-35.938 10.923-55.589A151.113 151.113 0 0 0 476.89 0a150.967 150.967 0 0 0-150.82 150.82c0 40.912 16.481 77.97 43.057 105.18L248.003 421.79a148.724 148.724 0 0 0-72.801-19.553A150.967 150.967 0 0 0 24.38 553.057a151.016 151.016 0 0 0 150.82 150.87c33.012 0 63.293-10.972 88.21-29.062l165.694 130.194c-1.122 8.095-2.487 16.14-2.487 24.576a176.177 176.177 0 0 0 175.933 175.982c97.036 0 175.982-78.946 175.982-175.982S699.587 653.653 602.55 653.653a175.787 175.787 0 0 0-158.623 101.133L297.984 640.049a149.553 149.553 0 0 0 28.038-86.991c0-39.01-15.262-74.265-39.692-101.084l122.295-167.4a148.724 148.724 0 0 0 68.266 17.116c45.885 0 86.504-21.065 114.25-53.492l154.77 116.053c-10.923 18.627-17.603 39.985-17.603 63.147A125.708 125.708 0 1 0 854.016 301.69zM602.551 702.366c70.12 0 127.22 57.1 127.22 127.22s-57.1 127.22-127.22 127.22-127.171-57.1-127.171-127.22 57.051-127.22 127.17-127.22zM73.143 553.058c0-56.272 45.787-102.06 102.059-102.06s102.058 45.788 102.058 102.06-45.787 102.107-102.058 102.107-102.06-45.836-102.06-102.107z m403.748-300.13c-56.27 0-102.107-45.787-102.107-102.059S420.62 48.762 476.891 48.762s102.06 45.787 102.06 102.059-45.788 102.107-102.06 102.107z" p-id="10881" fill="#2c2c2c"></path></svg>