<?xml version="1.0" standalone="no"?><!DOCTYPE svg PUBLIC "-//W3C//DTD SVG 1.1//EN" "http://www.w3.org/Graphics/SVG/1.1/DTD/svg11.dtd"><svg t="1559460802009" class="icon" style="" viewBox="0 0 1024 1024" version="1.1" xmlns="http://www.w3.org/2000/svg" p-id="8543" xmlns:xlink="http://www.w3.org/1999/xlink" width="32" height="32"><defs><style type="text/css"></style></defs><path d="M164.927 851.622c-36.902 0-66.923-30.019-66.923-66.918V239.299c0-36.9 30.022-66.921 66.923-66.921h694.15c36.9 0 66.92 30.021 66.92 66.921v545.404c0 36.899-30.02 66.918-66.92 66.918h-694.15z m-1.358-59.428l709.108-0.039-0.054-560.309H163.569v560.348z" p-id="8544"></path><path d="M716.697 615.297c-6.096 0-11.828-2.377-16.14-6.69l-74.996-74.994 32.283-32.283 36.022 36.020v-124.474h45.661v124.474l36.023-36.020 32.283 32.283-74.995 74.994c-4.313 4.313-10.045 6.69-16.142 6.69z" p-id="8545"></path><path d="M563.032 377.564v268.872c0 0.971-0.787 1.758-1.758 1.758h-49.607c-0.971 0-1.758-0.787-1.758-1.758v-133.985c0-1.885-2.564-2.448-3.354-0.737l-52.423 113.584c-0.286 0.608-0.892 1.021-1.597 1.021 0 0 0 0 0 0h-57.122c-0.705 0-1.313-0.415-1.593-1.013l-52.427-114.080c-0.788-1.714-3.354-1.152-3.354 0.734v134.474c0 0.971-0.787 1.758-1.758 1.758h-50.128c-0.971 0-1.758-0.787-1.758-1.758v-268.871c0-0.971 0.787-1.758 1.758-1.758h50.759c0.705 0 1.313 0.414 1.593 1.013l83.872 182.485c0.627 1.365 2.567 1.365 3.194 0l83.867-182.475c0.285-0.609 0.892-1.024 1.597-1.024h50.238c0 0 0.001 0 0.001 0 0.971 0 1.758 0.787 1.758 1.758 0 0 0 0 0 0z" p-id="8546"></path></svg>