<?xml version="1.0" standalone="no"?><!DOCTYPE svg PUBLIC "-//W3C//DTD SVG 1.1//EN" "http://www.w3.org/Graphics/SVG/1.1/DTD/svg11.dtd"><svg t="1559539488819" class="icon" style="" viewBox="0 0 1024 1024" version="1.1" xmlns="http://www.w3.org/2000/svg" p-id="5693" xmlns:xlink="http://www.w3.org/1999/xlink" width="32" height="32"><defs><style type="text/css"></style></defs><path d="M0 0h1024v1024H0z" fill="#5E83B8" p-id="5694"></path><path d="M353.28 578.56c-15.36 15.36-30.72 25.6-46.08 30.72-15.36 5.12-35.84 5.12-61.44 5.12H184.32l-15.36 81.92H102.4l61.44-307.2h128c40.96 0 66.56 10.24 87.04 30.72 15.36 20.48 25.6 51.2 15.36 87.04-5.12 15.36-10.24 25.6-15.36 40.96-5.12 10.24-15.36 20.48-25.6 30.72z" fill="#FFFFFF" p-id="5695"></path><path d="M266.24 440.32h-46.08l-25.6 128h40.96c25.6 0 46.08-5.12 61.44-15.36 15.36-10.24 20.48-25.6 25.6-51.2 5.12-20.48 0-40.96-5.12-46.08-10.24-15.36-25.6-15.36-51.2-15.36z" fill="#5E83B8" p-id="5696"></path><path d="M547.84 614.4l25.6-138.24c5.12-15.36 0-25.6-5.12-30.72-5.12-5.12-15.36-5.12-30.72-5.12h-51.2L450.56 614.4H384l61.44-307.2H512l-20.48 81.92h61.44c35.84 0 61.44 5.12 76.8 20.48 15.36 15.36 20.48 35.84 15.36 61.44L614.4 614.4h-66.56zM916.48 506.88c-5.12 15.36-10.24 30.72-15.36 40.96-5.12 10.24-15.36 25.6-25.6 35.84-10.24 10.24-25.6 20.48-46.08 25.6-15.36 5.12-35.84 5.12-61.44 5.12h-56.32l-15.36 81.92h-66.56l61.44-307.2H819.2c40.96 0 66.56 10.24 87.04 30.72 15.36 20.48 20.48 51.2 10.24 87.04z" fill="#FFFFFF" p-id="5697"></path><path d="M793.6 440.32h-46.08l-25.6 128h40.96c25.6 0 46.08-5.12 61.44-15.36 15.36-10.24 20.48-25.6 25.6-51.2 5.12-20.48 0-40.96-5.12-46.08-10.24-15.36-25.6-15.36-51.2-15.36z" fill="#5E83B8" p-id="5698"></path></svg>