<?xml version="1.0" standalone="no"?><!DOCTYPE svg PUBLIC "-//W3C//DTD SVG 1.1//EN" "http://www.w3.org/Graphics/SVG/1.1/DTD/svg11.dtd"><svg t="1559539288691" class="icon" style="" viewBox="0 0 1024 1024" version="1.1" xmlns="http://www.w3.org/2000/svg" p-id="2787" xmlns:xlink="http://www.w3.org/1999/xlink" width="32" height="32"><defs><style type="text/css"></style></defs><path d="M328.106667 445.44h-34.56l-18.773334 97.28h30.72c20.48 0 35.413333-3.84 45.653334-11.52 9.813333-7.68 16.64-20.48 20.053333-38.4 3.413333-17.066667 1.706667-29.44-4.693333-36.693333-6.4-6.826667-19.2-10.666667-38.4-10.666667z m0 0" fill="#777BB4" p-id="2788"></path><path d="M511.573333 279.466667c-243.626667 0-440.746667 103.68-440.746666 231.68 0 128 197.546667 231.68 440.746666 231.68 243.626667 0 440.746667-103.68 440.746667-231.68 0-128-197.546667-231.68-440.746667-231.68z m-119.893333 273.92c-9.386667 8.96-20.906667 16.213333-33.706667 20.053333-12.373333 3.84-28.16 5.973333-47.36 5.973333H267.52l-11.946667 61.866667H204.8l45.226667-232.533333h97.28c29.44 0 50.773333 7.68 64 23.04 13.653333 15.36 17.493333 36.693333 11.946666 64.426666-2.133333 11.093333-5.973333 21.76-11.52 31.573334l0.426667-0.426667c-5.12 9.386667-11.946667 17.92-20.48 26.026667z m148.053333 26.026666l20.053334-102.826666c2.133333-11.52 1.28-19.626667-2.56-23.893334-3.84-4.266667-12.373333-6.4-25.173334-6.4h-40.106666l-26.026667 133.12H415.573333L460.8 347.306667h50.346667L499.2 409.173333h44.8c28.16 0 47.786667 5.12 58.453333 14.933334s14.08 25.6 9.813334 47.786666l-20.906667 107.946667h-51.626667z m279.04-83.2c-2.133333 11.52-5.973333 22.186667-11.52 31.573334l0.426667-0.426667c-5.12 9.386667-11.946667 17.92-20.48 26.026667-9.386667 8.96-20.906667 15.786667-32.853333 20.053333h-0.426667c-12.373333 3.84-28.16 5.973333-47.36 5.973333h-43.52l-11.946667 61.866667h-50.773333l45.226667-232.533333H742.4c29.44 0 50.773333 7.68 64 23.04 13.653333 15.36 17.493333 37.12 12.373333 64.426666z m0 0" fill="#777BB4" p-id="2789"></path><path d="M723.2 445.44h-34.56l-18.773333 97.28h30.72c20.48 0 35.84-3.84 45.653333-11.52 9.813333-7.68 16.64-20.48 20.053333-38.4 3.413333-17.066667 1.706667-29.44-4.693333-36.693333-6.4-7.253333-19.2-10.666667-38.4-10.666667z m0 0" fill="#777BB4" p-id="2790"></path></svg>