<?xml version="1.0" standalone="no"?><!DOCTYPE svg PUBLIC "-//W3C//DTD SVG 1.1//EN" "http://www.w3.org/Graphics/SVG/1.1/DTD/svg11.dtd"><svg t="1559555619619" class="icon" style="" viewBox="0 0 1024 1024" version="1.1" xmlns="http://www.w3.org/2000/svg" p-id="4003" xmlns:xlink="http://www.w3.org/1999/xlink" width="16" height="16"><defs><style type="text/css"></style></defs><path d="M989.866667 34.133333a116.48 116.48 0 0 0-82.432-34.133333H116.565333A116.48 116.48 0 0 0 0 116.565333v790.954667A116.650667 116.650667 0 0 0 116.565333 1024h790.954667a116.650667 116.650667 0 0 0 116.565333-116.565333V116.565333A116.906667 116.906667 0 0 0 989.866667 34.133333zM451.498667 459.264L311.893333 598.869333a46.506667 46.506667 0 0 1-65.877333-65.877333l106.752-106.752-106.666667-106.666667a46.506667 46.506667 0 0 1 65.792-65.792L451.498667 393.386667a46.592 46.592 0 0 1 0 65.877333z m292.949333 153.258667H511.744a46.506667 46.506667 0 1 1 0-93.013334h232.704a46.506667 46.506667 0 1 1 0 93.013334z" fill="#407CD5" p-id="4004"></path></svg>