<?xml version="1.0" standalone="no"?><!DOCTYPE svg PUBLIC "-//W3C//DTD SVG 1.1//EN" "http://www.w3.org/Graphics/SVG/1.1/DTD/svg11.dtd"><svg t="1559539273397" class="icon" style="" viewBox="0 0 1024 1024" version="1.1" xmlns="http://www.w3.org/2000/svg" p-id="2025" xmlns:xlink="http://www.w3.org/1999/xlink" width="32" height="32"><defs><style type="text/css"></style></defs><path d="M870.4 1024h-716.8c-84.48 0-153.6-69.12-153.6-153.6v-716.8c0-84.48 69.12-153.6 153.6-153.6h716.8c84.48 0 153.6 69.12 153.6 153.6v716.8c0 84.48-69.12 153.6-153.6 153.6z" fill="#F03D37" p-id="2026"></path><path d="M144.384 134.144h735.232L819.2 798.72l-311.808 91.136-296.448-91.136-66.56-664.576z m588.8 200.704l17.92-100.864-473.6-1.024 30.72 302.592h308.224V614.912l-103.424 34.816-107.52-36.352-6.656-42.496-84.48 1.024 12.8 106.496 181.248 60.416 190.464-57.344 24.576-243.712h-335.36l-8.704-102.4h353.792v-0.512z" fill="#FFFFFF" p-id="2027"></path></svg>