<?xml version="1.0" standalone="no"?><!DOCTYPE svg PUBLIC "-//W3C//DTD SVG 1.1//EN" "http://www.w3.org/Graphics/SVG/1.1/DTD/svg11.dtd"><svg t="1559458910784" class="icon" style="" viewBox="0 0 1024 1024" version="1.1" xmlns="http://www.w3.org/2000/svg" p-id="13645" xmlns:xlink="http://www.w3.org/1999/xlink" width="32" height="32"><defs><style type="text/css"></style></defs><path d="M96 659.2C96 774.4 243.2 864 428.8 864c185.6 0 332.8-89.6 332.8-204.8 0-115.2-147.2-204.8-332.8-204.8C243.2 454.4 96 544 96 659.2" fill="#FFFFFF" p-id="13646"></path><path d="M755.2 499.2c-12.8-6.4-25.6-6.4-19.2-25.6 12.8-38.4 19.2-70.4 0-96-32-44.8-121.6-44.8-217.6 0 0 0-32 12.8-25.6-12.8 25.6-51.2 19.2-96 0-115.2-51.2-51.2-198.4 0-320 128-89.6 89.6-147.2 192-147.2 275.2 0 160 204.8 262.4 409.6 262.4 268.8 0 441.6-153.6 441.6-275.2 0-83.2-64-128-121.6-140.8z m-320 352c-160 19.2-300.8-57.6-313.6-166.4C108.8 582.4 230.4 480 396.8 467.2c160-19.2 300.8 57.6 313.6 166.4C716.8 736 595.2 832 435.2 851.2z" fill="#D52B2A" p-id="13647"></path><path d="M934.4 198.4c-64-70.4-160-96-249.6-76.8-19.2 6.4-32 25.6-32 44.8 12.8 19.2 32 32 51.2 25.6 64-12.8 128 6.4 172.8 57.6 44.8 51.2 57.6 121.6 38.4 179.2-6.4 19.2 6.4 38.4 25.6 44.8 19.2 6.4 38.4-6.4 44.8-25.6 32-76.8 12.8-172.8-51.2-249.6" fill="#E89214" p-id="13648"></path><path d="M838.4 288c-32-32-76.8-44.8-121.6-38.4-19.2 6.4-25.6 19.2-25.6 38.4 6.4 19.2 19.2 25.6 38.4 25.6 19.2-6.4 44.8 0 57.6 19.2 12.8 19.2 19.2 38.4 12.8 57.6-6.4 19.2 6.4 32 19.2 38.4 19.2 6.4 32-6.4 38.4-19.2 19.2-38.4 12.8-83.2-19.2-121.6" fill="#E89214" p-id="13649"></path><path d="M448 544c-76.8-19.2-160 19.2-198.4 89.6-32 70.4 0 147.2 76.8 172.8 83.2 25.6 179.2-12.8 211.2-89.6S531.2 569.6 448 544z m-57.6 179.2c-12.8 25.6-51.2 38.4-76.8 25.6-25.6-12.8-32-38.4-19.2-64s44.8-32 70.4-25.6c32 12.8 38.4 38.4 25.6 64z m51.2-64C435.2 672 422.4 672 416 672c-12.8-6.4-12.8-12.8-6.4-25.6 6.4-6.4 19.2-12.8 25.6-12.8 6.4 6.4 12.8 12.8 6.4 25.6z" fill="#040000" p-id="13650"></path></svg>