<?xml version="1.0" standalone="no"?><!DOCTYPE svg PUBLIC "-//W3C//DTD SVG 1.1//EN" "http://www.w3.org/Graphics/SVG/1.1/DTD/svg11.dtd"><svg t="1559459728975" class="icon" style="" viewBox="0 0 1024 1024" version="1.1" xmlns="http://www.w3.org/2000/svg" p-id="24286" xmlns:xlink="http://www.w3.org/1999/xlink" width="32" height="32"><defs><style type="text/css"></style></defs><path d="M933.333333 283.733333L531.2 133.333333a55.466667 55.466667 0 0 0-38.4 0L90.666667 283.733333c-36.266667 13.866667-36.266667 61.866667 0 75.733334l402.133333 151.466666a55.466667 55.466667 0 0 0 38.4 0l402.133333-150.4c35.2-13.866667 35.2-62.933333 0-76.8z" fill="#777777" p-id="24287"></path><path d="M267.733333 492.8l226.133334 77.866667a48 48 0 0 0 34.133333 0l228.266667-77.866667a32 32 0 0 1 43.733333 29.866667v203.733333c0 18.133333-11.733333 32-26.666667 42.666667-37.333333 26.666667-113.066667 66.133333-261.333333 66.133333s-233.6-40.533333-259.2-62.933333c-13.866667-12.8-27.733333-24.533333-27.733333-43.733334V522.666667a32 32 0 0 1 42.666666-29.866667z" fill="#777777" p-id="24288"></path><path d="M830.933333 327.466667l64 0 0 377.6-64 0 0-377.6Z" fill="#777777" p-id="24289"></path></svg>