<?xml version="1.0" standalone="no"?><!DOCTYPE svg PUBLIC "-//W3C//DTD SVG 1.1//EN" "http://www.w3.org/Graphics/SVG/1.1/DTD/svg11.dtd"><svg t="1559459845195" class="icon" style="" viewBox="0 0 1024 1024" version="1.1" xmlns="http://www.w3.org/2000/svg" p-id="2227" xmlns:xlink="http://www.w3.org/1999/xlink" width="32" height="32"><defs><style type="text/css"></style></defs><path d="M1012.013176 291.117176L512 143.088941 11.986824 291.117176l95.503058 28.280471 118.211765 34.996706v444.596706c16.082824 15.510588 36.382118 28.310588 59.632941 39.333647 16.986353 7.740235 35.779765 14.607059 55.747765 20.269176 49.483294 14.305882 107.911529 22.347294 170.797176 22.347294 83.757176 0 159.774118-14.004706 217.328942-38.761411 3.282824-1.204706 6.264471-2.680471 9.246117-4.186353 23.552-10.721882 43.52-23.250824 59.632941-39.062588V354.394353l98.394353-29.123765v384.301177h59.632942V307.651765l55.898352-16.534589zM738.454588 615.905882v154.413177c-17.889882 11.625412-42.616471 22.648471-72.131764 30.991059-43.218824 12.528941-96.888471 20.269176-154.413177 19.968-76.920471 0.301176-146.371765-13.402353-194.048-33.972706a192.993882 192.993882 0 0 1-32.496941-16.986353v-235.550118c16.986353 7.740235 35.779765 14.607059 55.747765 20.269177 49.483294 14.305882 107.911529 22.347294 170.797176 22.347294 83.757176 0 159.774118-14.004706 217.328941-38.761412 3.282824-1.204706 6.264471-2.680471 9.246118-4.186353v81.468235z m0-235.851294v86.738824c-17.889882 11.625412-42.616471 22.648471-72.131764 30.991059-43.218824 12.528941-96.888471 20.269176-154.413177 19.968-76.920471 0.301176-146.371765-13.402353-194.048-33.972706a192.993882 192.993882 0 0 1-32.496941-16.986353v-94.750118L512 439.145412l226.454588-67.041883v7.951059zM512 376.289882L224.256 291.117176 512 205.914353l287.744 85.202823L512 376.289882zM896.481882 752.399059h59.632942v119.235765h-59.632942z" p-id="2228"></path></svg>