<?xml version="1.0" standalone="no"?><!DOCTYPE svg PUBLIC "-//W3C//DTD SVG 1.1//EN" "http://www.w3.org/Graphics/SVG/1.1/DTD/svg11.dtd"><svg t="1559459651351" class="icon" style="" viewBox="0 0 1032 1024" version="1.1" xmlns="http://www.w3.org/2000/svg" p-id="21875" xmlns:xlink="http://www.w3.org/1999/xlink" width="32.25" height="32"><defs><style type="text/css"></style></defs><path d="M701.63456 166.00576c0.52224 0 37.74976 46.27456 69.79072 86.23616h120.36096c43.89888 0 79.47264 34.62656 79.47264 77.35296v451.05152c0 42.7264-35.57376 77.34784-79.47264 77.34784H140.21632c-43.89888 0-79.47776-34.62656-79.47776-77.34784V329.59488c0-42.73152 35.57888-77.35296 79.47776-77.35296h228.29568c32.36864-39.95648 69.99552-86.23616 70.61504-86.23616h262.50752M260.53632 448.13824c24.97536 0 45.22496-19.712 45.22496-44.01664 0-24.33024-20.2496-44.04224-45.22496-44.04224-24.99584 0-45.24032 19.712-45.24032 44.04224-0.00512 24.30976 20.24448 44.01664 45.24032 44.01664m322.816 315.48416c110.05952 0 197.15584-85.90848 197.15584-193.7152 0-107.81184-87.09632-195.2-197.15584-195.2S384.06144 462.09536 384.06144 569.9072c0 107.8016 89.23136 193.7152 199.29088 193.7152m118.28224-649.23648H439.12704c-8.54528 0-24.93952 2.25792-38.72256 17.408-0.67584 0.7424-1.42848 1.59744-2.36544 2.688-1.31072 1.53088-3.06688 3.62496-5.376 6.40512-3.96288 4.77184-9.65632 11.6992-16.91648 20.59264a14125.9776 14125.9776 0 0 0-31.83616 39.13728H140.21632c-34.75968 0-67.50208 13.24032-92.20096 37.27872a128.49664 128.49664 0 0 0-28.37504 41.0112 126.39744 126.39744 0 0 0-10.5216 50.68288v451.05152c0 17.56672 3.53792 34.61632 10.5216 50.68288a128.3072 128.3072 0 0 0 28.37504 41.00608c24.69888 24.0384 57.4464 37.27872 92.20096 37.27872h751.56992c34.75968 0 67.50208-13.24032 92.20608-37.27872a128.39936 128.39936 0 0 0 28.36992-41.0112 126.464 126.464 0 0 0 10.5216-50.67776V329.59488a126.3616 126.3616 0 0 0-10.5216-50.68288 128.39936 128.39936 0 0 0-28.36992-41.0112c-24.69888-24.0384-57.4464-37.27872-92.20608-37.27872h-95.59552a23119.58528 23119.58528 0 0 0-31.31904-38.91712 4571.1872 4571.1872 0 0 0-16.67584-20.55168c-2.2528-2.74944-3.96288-4.8128-5.2224-6.31296a146.07872 146.07872 0 0 0-2.18624-2.53952c-13.81376-15.5904-30.45888-17.91488-39.15264-17.91488m-118.28224 597.61152c-81.42336 0-147.66592-63.73888-147.66592-142.09024 0-79.17056 66.24256-143.58016 147.66592-143.58016 81.60768 0 145.536 63.06816 145.536 143.58016-0.00512 79.67232-63.92832 142.09024-145.536 142.09024" p-id="21876"></path></svg>