<?xml version="1.0" standalone="no"?><!DOCTYPE svg PUBLIC "-//W3C//DTD SVG 1.1//EN" "http://www.w3.org/Graphics/SVG/1.1/DTD/svg11.dtd"><svg t="1559459693964" class="icon" style="" viewBox="0 0 1024 1024" version="1.1" xmlns="http://www.w3.org/2000/svg" p-id="22664" xmlns:xlink="http://www.w3.org/1999/xlink" width="32" height="32"><defs><style type="text/css"></style></defs><path d="M512 718.655c-58.531 0-105.988 47.456-105.988 105.988 0 58.531 47.456 105.988 105.988 105.988 58.531 0 105.988-47.456 105.988-105.988 0-58.531-47.457-105.988-105.988-105.988z m0 158.985c-29.252 0-52.994-23.742-52.994-52.994s23.742-52.994 52.994-52.994c29.279 0 52.994 23.742 52.994 52.994S541.279 877.64 512 877.64z m344.464-158.985c-58.531 0-105.988 47.456-105.988 105.988 0 58.531 47.456 105.988 105.988 105.988 58.531 0 105.988-47.456 105.988-105.988 0-58.531-47.456-105.988-105.988-105.988z m0 158.985c-29.279 0-52.994-23.742-52.994-52.994s23.742-52.994 52.994-52.994 52.994 23.742 52.994 52.994-23.715 52.994-52.994 52.994zM167.536 718.655c-58.531 0-105.988 47.456-105.988 105.988 0 58.531 47.456 105.988 105.988 105.988s105.988-47.456 105.988-105.988c-0.001-58.531-47.457-105.988-105.988-105.988z m0 158.985c-29.252 0-52.994-23.742-52.994-52.994s23.742-52.994 52.994-52.994c29.279 0 52.994 23.742 52.994 52.994s-23.715 52.994-52.994 52.994z m662.43-450.452h-291.47v-78.009c60.465-12.267 105.988-65.738 105.988-129.81 0-73.159-59.327-132.486-132.486-132.486S379.511 146.21 379.511 219.369c0 64.096 45.522 117.543 105.988 129.81v78.009h-291.47c-29.252 0-52.994 23.742-52.994 52.994v158.984c0 14.652 11.871 26.498 26.498 26.498s26.498-11.844 26.498-26.498V506.68c0-14.652 11.871-26.498 26.498-26.498H803.47c14.628 0 26.498 11.871 26.498 26.498v132.486c0 14.652 11.871 26.498 26.498 26.498 14.628 0 26.498-11.844 26.498-26.498V480.182c-0.001-29.255-23.719-52.994-52.998-52.994zM432.508 219.342c0-43.907 35.585-79.492 79.492-79.492 43.907 0 79.492 35.585 79.492 79.492S555.907 298.834 512 298.834c-43.907 0-79.492-35.585-79.492-79.492z" p-id="22665"></path></svg>