<?xml version="1.0" standalone="no"?><!DOCTYPE svg PUBLIC "-//W3C//DTD SVG 1.1//EN" "http://www.w3.org/Graphics/SVG/1.1/DTD/svg11.dtd"><svg t="1559998769714" class="icon" style="" viewBox="0 0 1024 1024" version="1.1" xmlns="http://www.w3.org/2000/svg" p-id="14374" xmlns:xlink="http://www.w3.org/1999/xlink" width="16" height="16"><defs><style type="text/css"></style></defs><path d="M512.095 967.206c-184.769-0.214-334.51-149.889-334.831-334.611 0-44.619 5.373-160.66 55.052-276.416 2.607-5.934 8.015-10.208 14.502-11.178 35.835-7.205 77.407-14.934 77.407-14.934 0.972-0.169 2.093-0.267 3.232-0.267 3.63 0 7.034 0.973 9.964 2.673l62.781 37.278 31.484-33.935c3.463-3.671 8.364-5.959 13.794-5.959 4.003 0 7.716 1.242 10.777 3.361l88.075 60.949 30.259-54.579c3.010-5.49 8.59-9.244 15.074-9.652 0.161-0.039 0.887-0.083 1.62-0.083 5.666 0 10.734 2.563 14.103 6.593l82.882 96.746 90.494-51.186c2.673-1.54 5.876-2.447 9.292-2.447 8.147 0 15.087 5.167 17.721 12.403 25.964 73.564 40.954 161.231 40.954 240.695-0.269 184.691-149.945 334.336-334.621 334.547zM263.139 380.217c-30.163 74.469-48.076 167.981-48.076 252.349 0.269 163.899 133.116 296.682 297.017 296.842 163.871-0.215 296.643-132.987 296.857-296.821-0.447-75.043-12.324-147.13-33.975-214.85l-81.594 55.899c-2.674 1.518-5.87 2.414-9.28 2.414-5.731 0-10.871-2.531-14.363-6.539l-75.244-87.972-27.242 49.113c-2.755 5.004-7.617 8.555-13.359 9.474-0.042 0.041-1.468 0.201-2.929 0.201-4.044 0-7.805-1.219-10.934-3.31l-91.837-63.49-30.823 33.088c-3.42 3.693-8.294 6.001-13.71 6.001-3.573 0-6.913-1.004-9.749-2.746l-69.77-41.338c-11.782 2.169-36.481 6.88-60.991 11.689z" fill="#666666" p-id="14375"></path><path d="M669.612 356.932c-0.015 0-0.029 0-0.044 0-5.71 0-10.82-2.548-14.265-6.574l-65.159-76.192-22.907 41.195c-2.755 5.004-7.617 8.555-13.359 9.474-0.065 0.058-1.515 0.225-3.004 0.225-4.023 0-7.76-1.23-10.853-3.333l-80.53-55.669-26.207 28.187c-3.452 3.702-8.355 6.007-13.801 6.007-3.533 0-6.837-0.972-9.664-2.66l-61.471-36.528c-12.255 2.26-38.554 7.259-62.405 12.066-1.056 0.206-2.271 0.325-3.514 0.325-5.923 0-11.225-2.678-14.751-6.893-2.633-3.238-4.211-7.373-4.211-11.876 0-2.704 0.567-5.276 1.594-7.598 53.307-124.404 140.221-190.294 251.17-190.294 119.435 0 213.134 78.994 263.85 222.562 0.671 1.857 1.059 3.998 1.059 6.23 0 6.988-3.804 13.089-9.452 16.346l-92.754 52.554c-2.734 1.532-5.997 2.439-9.472 2.452zM586.752 222.323c5.467 0 10.746 2.356 14.33 6.601l72.773 85.028 65.137-36.953c-33.557-86.535-98.884-182.593-222.749-182.593-102.655 0-164.493 67.024-200.596 134.329l32.898-6.222c0.997-0.182 2.149-0.287 3.322-0.287 3.604 0 6.978 0.982 9.871 2.693l54.395 32.375 27.054-29.034c3.438-3.707 8.332-6.019 13.769-6.019 4.021 0 7.747 1.264 10.799 3.419l76.674 53.126 25.923-46.755c3.065-5.455 8.623-9.193 15.090-9.669l1.312-0.041z" fill="#666666" p-id="14376"></path></svg>