<?xml version="1.0" standalone="no"?><!DOCTYPE svg PUBLIC "-//W3C//DTD SVG 1.1//EN" "http://www.w3.org/Graphics/SVG/1.1/DTD/svg11.dtd"><svg t="1559999102627" class="icon" style="" viewBox="0 0 1024 1024" version="1.1" xmlns="http://www.w3.org/2000/svg" p-id="7166" xmlns:xlink="http://www.w3.org/1999/xlink" width="16" height="16"><defs><style type="text/css"></style></defs><path d="M237 603.5s98.6-78 447.9-85c241.4-15.1 143.8 6 143.8 6v68.4s-40.8 18.7-62.2 76.7c0 0-29.3 58.7-64 12.7 0 0-28.7-88.7-77.3-93.3 0 0-37.9 2.6-56 62 0 0-16.4 54-48.7 58.7 0 0-31.3 12-66-71.3 0 0-15.3-45.3-49.3-44 0 0-33.6 4.8-46.7 56 0 0-12.7 49.6-44.7 54.1 0 0-48 14.5-57.6-54.1L237 603.5z" fill="#B8EDFF" p-id="7167"></path><path d="M345.2 209.9c10.8 0 19.7-8.9 19.7-19.7V168.4c0-10.9-8.8-19.7-19.7-19.7s-19.7 8.9-19.7 19.7v21.8c0 10.9 8.9 19.7 19.7 19.7zM345.2 252.3c-9.4 0-17 7.6-17 16.9v166.5c0 9.3 7.6 16.9 17 16.9 9.3 0 16.9-7.6 16.9-16.9V269.2c0-9.3-7.6-16.9-16.9-16.9zM512 209.9c10.8 0 19.7-8.9 19.7-19.7V168.4c0-10.9-8.8-19.7-19.7-19.7s-19.7 8.9-19.7 19.7v21.8c0 10.9 8.9 19.7 19.7 19.7zM512 252.3c-9.4 0-17 7.6-17 16.9v166.5c0 9.3 7.6 16.9 17 16.9 9.3 0 16.9-7.6 16.9-16.9V269.2c0-9.3-7.6-16.9-16.9-16.9zM678.9 209.9c10.8 0 19.7-8.9 19.7-19.7V168.4c0-10.9-8.8-19.7-19.7-19.7s-19.7 8.9-19.7 19.7v21.9c-0.1 5.2 1.9 10.1 5.6 13.8 3.8 3.7 8.8 5.8 14.1 5.8zM678.9 252.3c-9.4 0-17 7.6-17 16.9v166.5c0 9.3 7.6 16.9 17 16.9 9.3 0 16.9-7.6 16.9-16.9V269.2c0-9.3-7.6-16.9-16.9-16.9zM940.6 894.5c-2.8-2.8-6.4-4.3-10.3-4.3h-72.9V517.9c0-19.9-16.2-36-36-36H214.6c-19.9 0-36 16.2-36 36v372.3h-84.9c-8.1 0-14.6 6.5-14.6 14.6s6.6 14.6 14.6 14.6h836.6c8.1 0 14.6-6.6 14.6-14.6 0-3.9-1.5-7.5-4.3-10.3z m-114.1-4.3H209.3V616.8l3.3 0.5c5 0.8 9.1 6.2 9.5 6.8 0.3 0.3 5.1 6.8 7.6 11.9 0.2 0.5 6.3 12.2 9.2 18.2l0.2 0.3c14.1 29.1 30.1 62.1 64.6 62.1 34.4 0 50.4-32.9 64.5-61.9l0.2-0.3c14.2-29.2 24.8-48.4 42.5-48.4s28.3 19.2 42.5 48.4c14 29.2 29.9 62.3 64.6 62.3 34.3 0 50.4-32.7 64.5-61.6v-0.1l0.3-0.6c14.2-29.2 24.8-48.4 42.5-48.4s28.3 19 42.2 48l0.2 0.2 0.2 0.4c14.1 29.1 30.1 62.1 64.7 62.1 34.3 0 50.3-32.6 64.4-61.6v-0.1l1.5-3.1c1.3-2.7 2.5-5.1 3.6-7.2 0.8-1.8 1.8-3.6 2.7-5.3 0.5-0.8 0.9-1.6 1.3-2.4 3.2-6.4 5.8-10.7 8.5-13.9 3.9-4.7 7.5-6.4 7.9-6.6l4-1.8v275.5z m0.1-307.8l-7.8 3.8c-20.4 10.1-32.6 34.8-43.3 56.7v0.1l-0.3 0.6c-14.2 29.2-24.8 48.4-42.5 48.4-17.8 0-28.4-19.2-42.6-48.4l-0.1-0.2c-14.1-29.1-30.1-62.1-64.6-62.1-34.7 0-50.6 33.1-64.4 62.2-14.2 29.2-24.8 48.4-42.6 48.4-17.7 0-28.3-19.2-42.5-48.4l-0.3-0.6v-0.1c-14.1-29-30.1-61.6-64.4-61.6-34.5 0-50.5 33.1-64.6 62.3-14.2 29.2-24.8 48.4-42.5 48.4s-28.3-19.2-42.5-48.4l-0.1-0.2c-10.5-21.6-23.5-48.6-45.3-58.1l-6.5-2.8v-65.5h616.8v1h0.2l-0.1 64.5z" fill="#10A0EB" p-id="7168"></path></svg>