<?xml version="1.0" standalone="no"?><!DOCTYPE svg PUBLIC "-//W3C//DTD SVG 1.1//EN" "http://www.w3.org/Graphics/SVG/1.1/DTD/svg11.dtd"><svg t="1559996909987" class="icon" style="" viewBox="0 0 1024 1024" version="1.1" xmlns="http://www.w3.org/2000/svg" p-id="7567" xmlns:xlink="http://www.w3.org/1999/xlink" width="16" height="16"><defs><style type="text/css"></style></defs><path d="M512 549.888c-16.384 0-33.28-3.072-48.64-8.704L18.944 378.88C7.68 374.784 0 364.032 0 351.744s7.68-23.04 18.944-27.136l443.904-162.304c31.744-11.264 66.048-11.264 97.792 0l443.904 162.304c11.264 4.096 18.944 14.848 18.944 27.136s-7.68 23.04-18.944 27.136l-443.904 162.304c-15.36 5.632-32.256 8.704-48.64 8.704zM482.816 486.4c18.432 6.656 39.424 6.656 57.856 0l369.664-135.168-369.664-135.168a89.6 89.6 0 0 0-57.856 0.512L113.664 351.744 482.816 486.4z" fill="#333333" p-id="7568"></path><path d="M512 870.4c-89.088 0-169.472-29.696-209.92-47.616-49.664-22.016-109.056-55.808-109.056-91.648V431.616c0-15.872 12.8-29.184 29.184-29.184 15.872 0 29.184 12.8 29.184 29.184v293.888c19.968 21.504 138.24 87.04 260.608 87.04s241.152-65.536 260.608-87.04V431.616c0-15.872 12.8-29.184 29.184-29.184s29.184 12.8 29.184 29.184v299.52c0 35.84-59.392 69.632-109.056 91.648-40.448 17.92-120.832 47.616-209.92 47.616z m262.656-147.456z m-525.312 0zM92.16 681.472c-10.752 0-19.456-8.704-19.456-19.456V375.808c0-10.752 8.704-19.456 19.456-19.456s19.456 8.704 19.456 19.456v286.208c0 10.752-8.704 19.456-19.456 19.456z" fill="#333333" p-id="7569"></path><path d="M92.16 670.208m-48.128 0a48.128 48.128 0 1 0 96.256 0 48.128 48.128 0 1 0-96.256 0Z" fill="#333333" p-id="7570"></path></svg>