<?xml version="1.0" standalone="no"?><!DOCTYPE svg PUBLIC "-//W3C//DTD SVG 1.1//EN" "http://www.w3.org/Graphics/SVG/1.1/DTD/svg11.dtd"><svg t="1559998436846" class="icon" style="" viewBox="0 0 1024 1024" version="1.1" xmlns="http://www.w3.org/2000/svg" p-id="12145" xmlns:xlink="http://www.w3.org/1999/xlink" width="16" height="16"><defs><style type="text/css"></style></defs><path d="M947.2 291.84l-394.24 358.4c-30.72 25.6-71.68 25.6-102.4 0L76.8 312.32v245.76c0 15.36-10.24 25.6-25.6 25.6s-25.6-10.24-25.6-25.6V307.2c0-71.68 61.44-128 133.12-128h706.56c71.68 0 133.12 56.32 133.12 128v409.6c0 71.68-61.44 128-133.12 128H158.72C87.04 844.8 25.6 788.48 25.6 716.8v-40.96c0-15.36 10.24-25.6 25.6-25.6s25.6 10.24 25.6 25.6v40.96c0 40.96 35.84 76.8 81.92 76.8h706.56c46.08 0 81.92-35.84 81.92-76.8V307.2v-15.36z m-30.72-40.96c-15.36-10.24-30.72-20.48-56.32-20.48H158.72c-25.6 0-46.08 10.24-61.44 25.6l389.12 358.4c10.24 10.24 25.6 10.24 30.72 0l399.36-363.52z" fill="#414141" p-id="12146"></path><path d="M51.2 768l291.84-256 35.84 40.96-291.84 256L51.2 768z m880.64 5.12c10.24 10.24 10.24 25.6 0 35.84-10.24 10.24-25.6 10.24-35.84 0l-184.32-163.84c-10.24-10.24-10.24-25.6 0-35.84s25.6-10.24 35.84 0l184.32 163.84z" fill="#414141" p-id="12147"></path></svg>