<?xml version="1.0" standalone="no"?><!DOCTYPE svg PUBLIC "-//W3C//DTD SVG 1.1//EN" "http://www.w3.org/Graphics/SVG/1.1/DTD/svg11.dtd"><svg t="1559996921420" class="icon" style="" viewBox="0 0 1024 1024" version="1.1" xmlns="http://www.w3.org/2000/svg" p-id="7940" xmlns:xlink="http://www.w3.org/1999/xlink" width="16" height="16"><defs><style type="text/css"></style></defs><path d="M492.574 434.692c0-68.785-57.759-124.683-128.84-124.683-70.994 0-128.84 55.986-128.84 124.683 0 68.785 57.759 124.683 128.84 124.683 71.081 0.088 128.84-55.898 128.84-124.683z m-213.069 0c0-45.015 37.776-81.584 84.228-81.584s84.228 36.569 84.228 81.584-37.776 81.584-84.228 81.584-84.228-36.569-84.228-81.584zM591.702 430.339c-11.92 0-21.649 9.665-21.649 21.593s9.729 21.593 21.736 21.593H828.61c12.008 0 21.736-9.665 21.736-21.593s-9.729-21.593-21.736-21.593H591.702zM736.407 580.795c0-11.929-9.729-21.593-21.736-21.593H598.714c-12.008 0-21.736 9.665-21.736 21.593s9.729 21.593 21.736 21.593H714.67c12.008 0 21.737-9.665 21.737-21.593zM828.523 292.769H591.702c-12.008 0-21.736 9.665-21.736 21.593s9.816 21.593 21.736 21.593h236.821c12.008 0 21.736-9.665 21.736-21.593s-9.728-21.593-21.736-21.593z" fill="#333333" p-id="7941"></path><path d="M886.194 186.937h-746.31c-41.72 0-75.551 32.825-75.551 73.138v508.05c0 12.103 9.992 21.854 22.262 21.854 12.271 0 22.262-9.752 22.262-21.854V260.163c0-16.543 13.936-30.039 31.027-30.039h746.31c17.091 0 31.027 13.496 31.027 30.039v503.174c0 16.543-13.936 30.039-31.027 30.039h-245.41c-12.095 0-21.999 9.665-21.999 21.593s9.816 21.593 21.999 21.593h245.498c41.632 0 75.551-32.825 75.551-73.225V260.163c-0.087-40.4-34.007-73.226-75.639-73.226z" fill="#333333" p-id="7942"></path><path d="M587.686 801.094c0.08 0.635 0.172 1.266 0.247 1.902l-0.263-2.003 0.016 0.101c-14.569-115.056-109.065-204.191-223.339-204.191-114.905 0-209.913 90.117-223.586 206.093l0.175-1.741-0.526 3.57c-0.964 8.881-1.578 17.936-1.578 27.079v5.485h451.029c0-9.142-0.614-23.596-1.578-32.477l-0.597-3.818z m-405.819 1.989c13.322-93.774 89.925-166.042 182.48-166.042s169.158 72.268 182.392 166.042H181.867z" fill="#333333" p-id="7943"></path></svg>