<?xml version="1.0" standalone="no"?><!DOCTYPE svg PUBLIC "-//W3C//DTD SVG 1.1//EN" "http://www.w3.org/Graphics/SVG/1.1/DTD/svg11.dtd"><svg t="1559999039317" class="icon" style="" viewBox="0 0 1024 1024" version="1.1" xmlns="http://www.w3.org/2000/svg" p-id="5070" xmlns:xlink="http://www.w3.org/1999/xlink" width="16" height="16"><defs><style type="text/css"></style></defs><path d="M825.6 620.8c-59.733-10.667-123.733 8.533-164.267 51.2-8.533 8.533-23.466 10.667-36.266 6.4-149.334-49.067-234.667-136.533-281.6-202.667C332.8 460.8 332.8 439.467 345.6 426.667c23.467-23.467 40.533-55.467 46.933-89.6 8.534-44.8 0-89.6-25.6-128-25.6-38.4-64-64-108.8-70.4-44.8-8.534-89.6 2.133-128 27.733-36.266 25.6-61.866 66.133-70.4 110.933v4.267c-25.6 140.8 23.467 285.867 140.8 409.6C313.6 810.667 477.867 896 661.333 930.133c42.667 8.534 85.334 12.8 128 14.934H800c87.467 0 155.733-53.334 170.667-132.267C985.6 725.333 921.6 640 825.6 620.8z m81.067 181.333c-8.534 49.067-55.467 81.067-115.2 78.934-38.4-2.134-78.934-6.4-119.467-14.934-170.667-32-322.133-110.933-426.667-219.733-102.4-106.667-145.066-234.667-123.733-354.133V288c4.267-27.733 21.333-53.333 44.8-68.267 23.467-17.066 51.2-21.333 78.933-17.066 27.734 4.266 51.2 21.333 66.134 44.8 14.933 23.466 21.333 51.2 17.066 81.066-4.266 21.334-14.933 40.534-29.866 55.467-34.134 34.133-36.267 89.6-8.534 130.133C364.8 618.667 473.6 697.6 603.733 740.267c38.4 12.8 78.934 2.133 102.4-23.467 25.6-27.733 66.134-38.4 104.534-32 64 10.667 106.666 64 96 117.333z" fill="#484848" p-id="5071"></path><path d="M279.467 339.2c-12.8 0-21.334-8.533-21.334-21.333s-4.266-27.734-14.933-36.267c-8.533-6.4-23.467-8.533-40.533-4.267-10.667 2.134-23.467-4.266-25.6-17.066-4.267-10.667 4.266-23.467 14.933-25.6 38.4-8.534 64 2.133 76.8 12.8 19.2 14.933 29.867 40.533 29.867 70.4 2.133 12.8-8.534 21.333-19.2 21.333z m573.866 482.133C840.533 821.333 832 812.8 832 800s-4.267-27.733-14.933-36.267c-8.534-6.4-23.467-8.533-40.534-4.266-10.666 2.133-23.466-4.267-25.6-17.067-2.133-10.667 4.267-23.467 17.067-25.6 38.4-8.533 64 2.133 76.8 12.8 19.2 14.933 29.867 40.533 29.867 70.4 0 10.667-8.534 21.333-21.334 21.333z" fill="#61BF82" p-id="5072"></path></svg>