<?xml version="1.0" standalone="no"?><!DOCTYPE svg PUBLIC "-//W3C//DTD SVG 1.1//EN" "http://www.w3.org/Graphics/SVG/1.1/DTD/svg11.dtd"><svg t="1560008417783" class="icon" style="" viewBox="0 0 1024 1024" version="1.1" xmlns="http://www.w3.org/2000/svg" p-id="1435" xmlns:xlink="http://www.w3.org/1999/xlink" width="16" height="16"><defs><style type="text/css"></style></defs><path d="M230.4 58.88c30.72 12.8 102.4 163.84 115.2 212.48 12.8 53.76-110.08 84.48-87.04 168.96C307.2 616.96 558.08 757.76 583.68 742.4c43.52-28.16 110.08-97.28 128-99.84 15.36-2.56 156.16 56.32 217.6 117.76 35.84 38.4-43.52 322.56-399.36 163.84C235.52 806.4-23.04 460.8 33.28 189.44 61.44 74.24 209.92 51.2 230.4 58.88z" fill="#62B900" p-id="1436"></path><path d="M463.36 217.6c-7.68 66.56 33.28 130.56 89.6 181.76l-30.72 71.68 87.04-35.84c30.72 10.24 58.88 20.48 89.6 25.6 143.36 15.36 268.8-71.68 279.04-189.44 12.8-120.32-92.16-227.84-235.52-243.2-135.68-15.36-266.24 69.12-279.04 189.44z m337.92-17.92c-15.36-2.56-25.6-15.36-23.04-28.16 2.56-15.36 15.36-25.6 28.16-23.04 15.36 2.56 25.6 15.36 23.04 28.16 0 15.36-12.8 25.6-28.16 23.04z m-153.6 0c-15.36-2.56-25.6-15.36-23.04-28.16 2.56-15.36 15.36-25.6 28.16-23.04 15.36 2.56 25.6 15.36 23.04 28.16 0 12.8-12.8 25.6-28.16 23.04z" fill="#62B900" p-id="1437"></path></svg>