<?xml version="1.0" standalone="no"?><!DOCTYPE svg PUBLIC "-//W3C//DTD SVG 1.1//EN" "http://www.w3.org/Graphics/SVG/1.1/DTD/svg11.dtd"><svg t="1559998471271" class="icon" style="" viewBox="0 0 1024 1024" version="1.1" xmlns="http://www.w3.org/2000/svg" p-id="13240" xmlns:xlink="http://www.w3.org/1999/xlink" width="16" height="16"><defs><style type="text/css"></style></defs><path d="M770.7 172.643c-7.432-5.152-20.124-5.892-28.033 4.066-7.093 8.93-6.212 20.444 4.518 31.147 3.152 3.144 11.153 11.106 19.64 25.776 12.508 20.449 22.802 47.578 27.321 78.728 4.518 31.147 2.834 57.896-4.124 86.31-4.333 17.697-11.176 29.548-13.406 33.399-5.973 10.316-5.521 21.518 4.052 28.543 10.763 7.899 22.705 3.066 28.033-4.066 5.325-7.135 12.863-20.949 19.496-40.995 8.393-29.84 12.317-68.573 6.895-105.951-5.422-37.378-20.189-73.4-36.715-99.628-12.507-20.449-20.542-32.005-27.677-37.329z" fill="#333333" p-id="13241"></path><path d="M891.184 128.557c-19.213-26.097-37.624-45.948-51.313-53.71-10.167-5.044-20.621-2.774-27.698 6.725-6.78 9.1-3.44 22.654 7.128 30.816 3.522 2.724 32.5 30.738 40.747 45.548 27.056 37.781 49.074 85.728 56.282 141.923 7.207 56.195-1.181 105.466-18.644 151.532-9.324 24.598-13.61 30.399-20.172 40.665-4.795 7.501-10.325 13.698-11.813 16.471-7.602 14.168-1.874 23.443 4.932 28.839 8.893 7.051 19.934 6.963 28.499-0.483 11.286-10.968 24.092-34.824 36.097-64.921 20.891-59.798 29.293-117.992 21.285-180.429-8.01-62.441-30.826-116.631-65.33-162.976zM585.004 276.804L333.18 200.136c-47.809-14.555-98.834 12.652-113.389 60.46L68.422 757.784c-14.555 47.809 12.652 98.834 60.461 113.389l251.825 76.668c47.809 14.555 98.834-12.652 113.389-60.46l151.369-497.188c14.554-47.809-12.653-98.834-60.462-113.389zM606.6 385.82L459.623 868.583c-3.434 11.279-15.361 17.638-26.64 14.204L124.26 788.796c-11.279-3.434-17.638-15.361-14.205-26.64l146.977-482.763c3.434-11.279 15.361-17.638 26.64-14.204l308.723 93.991c11.279 3.434 17.639 15.361 14.205 26.64z" fill="#333333" p-id="13242"></path><path d="M179 503.471l328-176.487-46.725-14.226-267.086 144.107zM216.483 402.585l200.772-106.726-36.212-11.025-153.563 81.631z" fill="#333333" p-id="13243"></path></svg>