<?xml version="1.0" standalone="no"?><!DOCTYPE svg PUBLIC "-//W3C//DTD SVG 1.1//EN" "http://www.w3.org/Graphics/SVG/1.1/DTD/svg11.dtd"><svg t="1560009837525" class="icon" style="" viewBox="0 0 1024 1024" version="1.1" xmlns="http://www.w3.org/2000/svg" p-id="2493" xmlns:xlink="http://www.w3.org/1999/xlink" width="16" height="16"><defs><style type="text/css"></style></defs><path d="M512 981.333333c-266.638222 0-483.555556-216.917333-483.555556-483.555555C28.444444 231.139556 245.361778 14.222222 512 14.222222c266.638222 0 483.555556 216.917333 483.555556 483.555556 0 266.638222-216.917333 483.555556-483.555556 483.555555z m0-916.195555C273.436444 65.137778 79.36 259.214222 79.36 497.777778c0 238.592 194.076444 432.668444 432.64 432.668444 238.592 0 432.668444-194.076444 432.668444-432.668444 0-238.563556-194.076444-432.64-432.668444-432.64z" fill="" p-id="2494"></path><path d="M321.137778 485.063111m-76.344889 0a76.344889 76.344889 0 1 0 152.689778 0 76.344889 76.344889 0 1 0-152.689778 0Z" fill="" p-id="2495"></path><path d="M524.743111 485.063111m-76.344889 0a76.344889 76.344889 0 1 0 152.689778 0 76.344889 76.344889 0 1 0-152.689778 0Z" fill="" p-id="2496"></path><path d="M728.32 485.063111m-76.344889 0a76.344889 76.344889 0 1 0 152.689778 0 76.344889 76.344889 0 1 0-152.689778 0Z" fill="" p-id="2497"></path></svg>