<?xml version="1.0" standalone="no"?><!DOCTYPE svg PUBLIC "-//W3C//DTD SVG 1.1//EN" "http://www.w3.org/Graphics/SVG/1.1/DTD/svg11.dtd"><svg t="1560010450413" class="icon" style="" viewBox="0 0 1024 1024" version="1.1" xmlns="http://www.w3.org/2000/svg" p-id="4524" xmlns:xlink="http://www.w3.org/1999/xlink" width="16" height="16"><defs><style type="text/css"></style></defs><path d="M675.84 0h-530.904615c-14.178462 0-26.781538 12.603077-26.781539 34.658462v970.436923c0 6.301538 12.603077 18.904615 26.781539 18.904615h734.12923c14.178462 0 26.781538-12.603077 26.781539-18.904615V236.307692c0-12.603077-1.575385-17.329231-4.726154-20.48l-212.676923-212.676923c-3.150769-1.575385-7.876923-3.150769-12.603077-3.150769z" fill="#F3F1EC" p-id="4525"></path><path d="M685.292308 0v220.553846h220.553846z" fill="#E2DEDC" p-id="4526"></path><path d="M393.846154 604.947692c-4.726154 0-7.876923-1.575385-11.027692-3.150769-12.603077-9.452308-14.178462-18.904615-12.603077-25.206154 1.575385-18.904615 25.206154-39.384615 69.316923-58.289231 17.329231-37.809231 34.658462-85.070769 44.110769-124.455384-11.027692-25.206154-22.055385-58.289231-14.178462-77.193846 3.150769-6.301538 6.301538-12.603077 12.603077-14.178462 3.150769-1.575385 7.876923-1.575385 11.027693-1.575384 6.301538 0 11.027692 7.876923 14.178461 12.603076 3.150769 4.726154 11.027692 14.178462-4.726154 78.769231 15.753846 31.507692 37.809231 64.590769 58.289231 88.221539 15.753846-3.150769 28.356923-4.726154 39.384615-4.726154 18.904615 0 29.932308 4.726154 33.083077 12.603077 3.150769 7.876923 1.575385 15.753846-4.726153 25.206154-6.301538 9.452308-15.753846 14.178462-25.206154 14.178461-14.178462 0-29.932308-9.452308-48.836923-26.781538-33.083077 6.301538-70.892308 18.904615-102.4 33.083077-9.452308 20.48-18.904615 37.809231-28.356923 48.836923-9.452308 14.178462-18.904615 22.055385-29.932308 22.055384z m31.507692-58.28923c-25.206154 14.178462-34.658462 25.206154-36.233846 31.507692 0 1.575385 0 3.150769 4.726154 7.876923 3.150769-1.575385 12.603077-4.726154 31.507692-39.384615z m157.538462-51.987693c9.452308 7.876923 11.027692 11.027692 17.32923 11.027693 3.150769 0 11.027692 0 14.178462-4.726154 1.575385-3.150769 3.150769-4.726154 3.150769-4.726154-1.575385 0-3.150769-1.575385-14.178461-1.575385-4.726154-1.575385-12.603077-1.575385-20.48 0z m-86.646154-77.193846c-9.452308 29.932308-18.904615 58.289231-31.507692 88.221539 25.206154-9.452308 50.412308-17.329231 75.618461-23.63077-14.178462-17.329231-29.932308-40.96-44.110769-64.590769z m-6.301539-97.673846c-1.575385 0-15.753846 20.48 1.575385 37.809231 11.027692-25.206154-1.575385-37.809231-1.575385-37.809231zM879.064615 1024h-734.12923c-14.178462 0-26.781538-12.603077-26.781539-26.781538v-283.569231h787.692308v283.569231c0 14.178462-12.603077 26.781538-26.781539 26.781538z" fill="#CC4B4C" p-id="4527"></path><path d="M319.803077 976.738462h-28.356923v-189.046154h50.412308c7.876923 0 14.178462 1.575385 22.055384 3.150769s14.178462 6.301538 20.48 11.027692c6.301538 4.726154 11.027692 11.027692 14.178462 18.904616 3.150769 7.876923 4.726154 15.753846 4.726154 25.206153 0 9.452308-1.575385 18.904615-4.726154 26.781539-3.150769 7.876923-7.876923 14.178462-12.603077 18.904615-4.726154 4.726154-12.603077 9.452308-18.904616 12.603077-7.876923 3.150769-15.753846 4.726154-25.206153 4.726154h-22.055385v67.741539z m0-165.415385v75.618461h26.781538c3.150769 0 6.301538 0 11.027693-1.575384 3.150769-1.575385 6.301538-3.150769 9.452307-6.301539 3.150769-3.150769 4.726154-6.301538 6.301539-12.603077 1.575385-4.726154 3.150769-11.027692 3.150769-18.904615 0-3.150769 0-6.301538-1.575385-11.027692-1.575385-4.726154-3.150769-7.876923-4.726153-11.027693-3.150769-3.150769-6.301538-6.301538-11.027693-9.452307-4.726154-3.150769-11.027692-3.150769-17.32923-3.150769l-22.055385-1.575385z m259.938461 66.166154c0 15.753846-1.575385 28.356923-4.726153 39.384615-3.150769 11.027692-6.301538 20.48-12.603077 28.356923-4.726154 7.876923-9.452308 12.603077-15.753846 17.329231-6.301538 4.726154-11.027692 7.876923-17.329231 9.452308-4.726154 1.575385-9.452308 3.150769-15.753846 4.726154-4.726154 0-7.876923 1.575385-11.027693 1.575384h-66.166154v-189.046154h53.563077c14.178462 0 28.356923 3.150769 39.384616 7.876923s20.48 11.027692 28.356923 20.48c7.876923 7.876923 12.603077 17.329231 17.329231 28.356923 3.150769 9.452308 4.726154 18.904615 4.726153 31.507693z m-85.070769 77.193846c18.904615 0 33.083077-6.301538 42.535385-20.48 7.876923-12.603077 12.603077-33.083077 12.603077-58.289231 0-7.876923-1.575385-15.753846-3.150769-23.630769s-4.726154-14.178462-9.452308-20.48-12.603077-11.027692-20.48-15.753846c-7.876923-3.150769-20.48-6.301538-33.083077-6.301539h-17.329231v143.36h28.356923v1.575385z m155.963077-143.36v59.864615h74.043077v20.48h-74.043077v85.07077h-29.932308v-189.046154h110.276924v23.630769h-80.344616z" fill="#FFFFFF" p-id="4528"></path></svg>