<?xml version="1.0" standalone="no"?><!DOCTYPE svg PUBLIC "-//W3C//DTD SVG 1.1//EN" "http://www.w3.org/Graphics/SVG/1.1/DTD/svg11.dtd"><svg t="1560010635405" class="icon" style="" viewBox="0 0 1024 1024" version="1.1" xmlns="http://www.w3.org/2000/svg" p-id="5702" xmlns:xlink="http://www.w3.org/1999/xlink" width="16" height="16"><defs><style type="text/css"></style></defs><path d="M250.311111 739.555556c-5.688889 0-17.066667-5.688889-17.066667-11.377778-5.688889-11.377778-5.688889-17.066667-5.688888-28.444445s11.377778-22.755556 22.755555-34.133333c11.377778-17.066667 34.133333-34.133333 62.577778-45.511111 11.377778-5.688889 28.444444-11.377778 39.822222-17.066667 17.066667-28.444444 45.511111-73.955556 62.577778-125.155555 0-5.688889 5.688889-11.377778 5.688889-17.066667-5.688889-11.377778-11.377778-28.444444-11.377778-39.822222-5.688889-17.066667-11.377778-34.133333-11.377778-45.511111v-39.822223c0-11.377778 5.688889-22.755556 11.377778-28.444444 5.688889-11.377778 11.377778-11.377778 17.066667-17.066667H455.111111c0-5.688889 5.688889 0 5.688889 0 17.066667 11.377778 17.066667 22.755556 11.377778 45.511111v11.377778c0 22.755556-11.377778 68.266667-22.755556 108.088889 0 0 0 5.688889 5.688889 5.688889 11.377778 17.066667 22.755556 39.822222 39.822222 62.577778 11.377778 17.066667 17.066667 28.444444 28.444445 39.822222h45.511111c17.066667 0 28.444444 5.688889 45.511111 5.688889 17.066667 5.688889 28.444444 11.377778 39.822222 17.066667 11.377778 5.688889 22.755556 17.066667 28.444445 28.444444 0 11.377778 0 28.444444-5.688889 39.822222 0 5.688889-11.377778 17.066667-22.755556 22.755556-11.377778 5.688889-28.444444 5.688889-39.822222 0-11.377778-5.688889-22.755556-11.377778-39.822222-22.755556-11.377778-11.377778-28.444444-22.755556-45.511111-39.822222-5.688889-5.688889-11.377778-11.377778-17.066667-22.755556-11.377778 0-22.755556 5.688889-39.822222 5.688889-34.133333 5.688889-68.266667 17.066667-102.4 28.444445v5.688889c-28.444444 39.822222-51.2 68.266667-68.266667 85.333333-17.066667 11.377778-28.444444 17.066667-39.822222 22.755556h-11.377778z m68.266667-91.022223c-28.444444 17.066667-39.822222 28.444444-45.511111 34.133334-11.377778 11.377778-17.066667 17.066667-17.066667 22.755555 5.688889 0 17.066667-5.688889 22.755556-17.066666 11.377778-5.688889 22.755556-17.066667 39.822222-39.822223z m233.244444-56.888889l39.822222 39.822223c17.066667 5.688889 22.755556 11.377778 34.133334 17.066666h17.066666c5.688889 0 5.688889-5.688889 11.377778-5.688889v-11.377777c0-5.688889-5.688889-11.377778-17.066666-17.066667-11.377778-11.377778-17.066667-11.377778-28.444445-17.066667-17.066667 0-28.444444-5.688889-39.822222-5.688889h-17.066667z m-113.777778-96.711111c-11.377778 34.133333-28.444444 68.266667-39.822222 91.022223h5.688889c17.066667-5.688889 39.822222-11.377778 62.577778-17.066667 5.688889 0 11.377778 0 17.066667-5.688889 0-5.688889-5.688889-11.377778-11.377778-17.066667l-34.133334-51.2z m5.688889-182.044444s-5.688889 5.688889 0 0c-5.688889 5.688889-5.688889 5.688889 0 0-5.688889 0-5.688889 5.688889-11.377777 5.688889 0 0 0 5.688889-5.688889 17.066666v34.133334c0 11.377778 5.688889 22.755556 5.688889 34.133333 5.688889-22.755556 11.377778-45.511111 11.377777-62.577778v-11.377777-17.066667c0 5.688889 0 5.688889 0 0z" fill="#5D9BEC" p-id="5703"></path><path d="M250.311111 745.244444c-11.377778 0-22.755556-5.688889-28.444444-17.066666-5.688889-11.377778-5.688889-22.755556-5.688889-34.133334 5.688889-11.377778 17.066667-22.755556 28.444444-39.822222 17.066667-11.377778 34.133333-28.444444 62.577778-39.822222 11.377778-5.688889 22.755556-11.377778 39.822222-17.066667 17.066667-28.444444 39.822222-73.955556 62.577778-119.466666 0-5.688889 5.688889-11.377778 5.688889-11.377778-5.688889-17.066667-11.377778-28.444444-17.066667-39.822222-5.688889-22.755556-5.688889-39.822222-5.688889-51.2v-45.511111c0-17.066667 5.688889-22.755556 11.377778-34.133334 5.688889-11.377778 11.377778-11.377778 22.755556-17.066666H455.111111s5.688889 0 11.377778 5.688888c22.755556 11.377778 22.755556 34.133333 17.066667 56.888889v11.377778c0 22.755556-11.377778 62.577778-22.755556 108.088889v5.688889c11.377778 17.066667 22.755556 39.822222 39.822222 62.577778 11.377778 5.688889 17.066667 11.377778 28.444445 22.755555h39.822222c17.066667 0 34.133333 5.688889 45.511111 5.688889 17.066667 5.688889 28.444444 11.377778 39.822222 17.066667 17.066667 11.377778 28.444444 22.755556 34.133334 34.133333 5.688889 17.066667 5.688889 34.133333 0 45.511111-5.688889 11.377778-17.066667 22.755556-34.133334 28.444445-11.377778 5.688889-28.444444 5.688889-39.822222 0-11.377778 0-28.444444-11.377778-39.822222-22.755556-17.066667-11.377778-34.133333-22.755556-51.2-39.822222l-17.066667-17.066667c-11.377778 0-17.066667 5.688889-34.133333 5.688889-28.444444 5.688889-62.577778 11.377778-96.711111 28.444445v5.688888c-22.755556 34.133333-45.511111 62.577778-68.266667 79.644445-17.066667 11.377778-34.133333 22.755556-45.511111 22.755555h-11.377778z m193.422222-449.422222s-5.688889 0 0 0h-11.377777c-5.688889 0-11.377778 5.688889-17.066667 11.377778-5.688889 5.688889-5.688889 11.377778-5.688889 28.444444v39.822223c0 11.377778 5.688889 28.444444 11.377778 45.511111 0 11.377778 0 22.755556 5.688889 34.133333v11.377778c0 5.688889-5.688889 11.377778-5.688889 17.066667-17.066667 45.511111-45.511111 91.022222-62.577778 125.155555-17.066667 5.688889-34.133333 11.377778-45.511111 17.066667-22.755556 11.377778-45.511111 28.444444-56.888889 39.822222-11.377778 11.377778-17.066667 22.755556-17.066667 34.133333v22.755556c5.688889 5.688889 11.377778 11.377778 17.066667 5.688889 11.377778 0 22.755556-11.377778 39.822222-22.755556 17.066667-17.066667 39.822222-45.511111 62.577778-79.644444l5.688889-11.377778c34.133333-11.377778 68.266667-22.755556 102.4-28.444444h51.2l5.688889 5.688888c5.688889 5.688889 11.377778 17.066667 17.066666 22.755556 11.377778 11.377778 28.444444 22.755556 39.822223 34.133333 11.377778 11.377778 28.444444 17.066667 34.133333 22.755556 11.377778 5.688889 22.755556 5.688889 28.444444 0 11.377778-5.688889 17.066667-11.377778 22.755556-17.066667 5.688889-11.377778 5.688889-22.755556 0-34.133333 0-11.377778-5.688889-22.755556-17.066667-28.444445l-34.133333-17.066666c-17.066667 0-34.133333-5.688889-45.511111-5.688889h-51.2v-5.688889c-11.377778-5.688889-17.066667-17.066667-28.444445-28.444444-17.066667-22.755556-34.133333-45.511111-39.822222-68.266667L443.733333 455.111111v-5.688889c11.377778-39.822222 22.755556-79.644444 22.755556-102.4v-11.377778c0-17.066667 0-28.444444-5.688889-34.133333L455.111111 295.822222h-11.377778c5.688889 0 0 0 0 0z m187.733334 364.088889h-11.377778c-5.688889-5.688889-17.066667-11.377778-28.444445-22.755555-17.066667-11.377778-28.444444-22.755556-45.511111-39.822223l-17.066666-17.066666h39.822222c11.377778 0 28.444444 5.688889 39.822222 5.688889 11.377778 5.688889 22.755556 5.688889 28.444445 11.377777 11.377778 11.377778 17.066667 17.066667 22.755555 28.444445 5.688889 5.688889 5.688889 17.066667 0 22.755555 0 5.688889-5.688889 5.688889-11.377778 11.377778h-17.066666z m-56.888889-56.888889c5.688889 5.688889 17.066667 11.377778 22.755555 22.755556 11.377778 5.688889 22.755556 11.377778 28.444445 11.377778H642.844444v-5.688889c0-5.688889-5.688889-11.377778-11.377777-11.377778-5.688889-5.688889-17.066667-11.377778-28.444445-11.377778-11.377778-5.688889-17.066667-5.688889-28.444444-5.688889z m-199.111111 0l11.377777-17.066666c17.066667-28.444444 34.133333-62.577778 39.822223-91.022223l5.688889-17.066666 11.377777 17.066666c11.377778 11.377778 22.755556 28.444444 34.133334 45.511111l17.066666 17.066667 11.377778 11.377778h-17.066667c-5.688889 0-11.377778 0-17.066666 5.688889l-68.266667 17.066666-28.444444 11.377778zM438.044444 512c-5.688889 17.066667-17.066667 39.822222-28.444444 56.888889 22.755556 0 39.822222-5.688889 56.888889-5.688889h5.688889l-5.688889-5.688889c-11.377778-17.066667-17.066667-28.444444-28.444445-45.511111z" fill="#5D9BEC" p-id="5704"></path><path d="M841.955556 819.2V625.777778c0-34.133333-22.755556-56.888889-56.888889-56.888889s-56.888889 22.755556-56.888889 56.888889v193.422222l-62.577778-62.577778c-22.755556-22.755556-56.888889-22.755556-79.644444 0-22.755556 22.755556-22.755556 56.888889 0 79.644445l159.288888 159.288889c11.377778 11.377778 28.444444 17.066667 39.822223 17.066666s28.444444-5.688889 39.822222-17.066666l159.288889-159.288889c22.755556-22.755556 22.755556-56.888889 0-79.644445-22.755556-22.755556-56.888889-22.755556-79.644445 0l-62.577777 62.577778z" fill="#5D9BEC" p-id="5705"></path><path d="M113.777778 910.222222V113.777778h682.666666v364.088889h113.777778V113.777778c0-62.577778-51.2-113.777778-113.777778-113.777778H113.777778C51.2 0 0 51.2 0 113.777778v796.444444c0 62.577778 51.2 113.777778 113.777778 113.777778h392.533333v-113.777778H113.777778z" fill="#5D9BEC" p-id="5706"></path></svg>