<?xml version="1.0" standalone="no"?><!DOCTYPE svg PUBLIC "-//W3C//DTD SVG 1.1//EN" "http://www.w3.org/Graphics/SVG/1.1/DTD/svg11.dtd"><svg t="1559996919068" class="icon" style="" viewBox="0 0 1024 1024" version="1.1" xmlns="http://www.w3.org/2000/svg" p-id="7814" xmlns:xlink="http://www.w3.org/1999/xlink" width="16" height="16"><defs><style type="text/css"></style></defs><path d="M825.4 256.3H512.2c-36.2-0.3-51.7 3.3-64.2-9.3-24.9-24.9-33-55.3-95-55.3H193.6c-35.5 0-64.6 29.1-64.6 64.6v570.3c0 38.3 31.3 69.6 69.6 69.6h626.8c38.3 0 69.6-31.3 69.6-69.6V325.9c0-38.3-31.3-69.6-69.6-69.6z m5.6 511.9c0 17-6.7 33-18.9 45.2-12.2 12.2-28.2 18.9-45.2 18.9H257.1c-17 0-33-6.7-45.2-18.9-12.2-12.2-18.9-28.2-18.9-45.2V359.6c0-21.7 17.6-39.4 39.4-39.4h534.5c17 0 33 6.7 45.2 18.9 12.2 12.2 18.9 28.2 18.9 45.2v383.9z" fill="#333333" p-id="7815"></path><path d="M288 480m-32 0a32 32 0 1 0 64 0 32 32 0 1 0-64 0Z" fill="#333333" p-id="7816"></path><path d="M736 512H416c-17.6 0-32-14.4-32-32s14.4-32 32-32h320c17.6 0 32 14.4 32 32s-14.4 32-32 32z" fill="#333333" p-id="7817"></path><path d="M288 671m-32 0a32 32 0 1 0 64 0 32 32 0 1 0-64 0Z" fill="#333333" p-id="7818"></path><path d="M736 703H416c-17.6 0-32-14.4-32-32s14.4-32 32-32h320c17.6 0 32 14.4 32 32s-14.4 32-32 32z" fill="#333333" p-id="7819"></path></svg>