<?xml version="1.0" standalone="no"?><!DOCTYPE svg PUBLIC "-//W3C//DTD SVG 1.1//EN" "http://www.w3.org/Graphics/SVG/1.1/DTD/svg11.dtd"><svg t="1559996916131" class="icon" style="" viewBox="0 0 1024 1024" version="1.1" xmlns="http://www.w3.org/2000/svg" p-id="7691" xmlns:xlink="http://www.w3.org/1999/xlink" width="16" height="16"><defs><style type="text/css"></style></defs><path d="M357.6 680c-8.8 0-16-6.4-16.8-15.2-8-67.2-18.4-108.8-56-162.4-17.6-22.4-28-41.6-21.6-59.2 4.8-16 23.2-27.2 52.8-34.4 61.6-20 107.2-52.8 140-100 5.6-8 16-9.6 24-4s9.6 16 4 24c-36.8 53.6-88 90.4-157.6 112.8h-1.6c-20.8 4.8-27.2 10.4-28.8 12 0 2.4 2.4 9.6 16.8 28v0.8c41.6 59.2 53.6 106.4 62.4 177.6 0.8 9.6-5.6 17.6-14.4 19.2-1.6 0.8-2.4 0.8-3.2 0.8z" fill="#E41010" p-id="7692"></path><path d="M506.4 160.8c0.8 0 14.4 4 37.6 41.6 60.8 99.2 148 162.4 260.8 189.6 44.8 10.4 51.2 23.2 51.2 23.2s1.6 14.4-28 48.8C753.6 552.8 720 656 728.8 771.2c3.2 44.8-5.6 56-6.4 56-0.8 0-2.4 0.8-7.2 0.8-8 0-22.4-2.4-48-12.8-53.6-22.4-107.2-33.6-161.6-33.6s-108 11.2-161.6 33.6c-24.8 10.4-40 12.8-48 12.8-4.8 0-6.4-0.8-7.2-0.8-0.8-0.8-9.6-11.2-6.4-56C291.2 656 257.6 552.8 182.4 464c-29.6-35.2-28-48.8-28-48.8s7.2-12.8 51.2-23.2C320 364.8 408 301.6 468.8 202.4c23.2-37.6 36.8-41.6 37.6-41.6m0-50.4c-26.4 0-53.6 21.6-80.8 65.6C372.8 264 296 320 196 344c-99.2 24-116 75.2-49.6 153.6 66.4 78.4 96 168 88 270.4-5.6 73.6 15.2 111.2 63.2 111.2 18.4 0 40.8-5.6 67.2-16 47.2-19.2 94.4-29.6 142.4-29.6s94.4 9.6 142.4 29.6c26.4 10.4 48.8 16 67.2 16 48 0 68.8-36.8 63.2-111.2-8-102.4 21.6-192.8 88-270.4 66.4-78.4 49.6-129.6-49.6-153.6s-176-80-229.6-167.2c-28.8-44-55.2-66.4-82.4-66.4z" fill="#333333" p-id="7693"></path></svg>